<mxfile host="app.diagrams.net" modified="2023-11-24T16:26:49.317Z" agent="Mozilla/5.0 (X11; Linux x86_64) AppleWebKit/537.36 (KHTML, like Gecko) Chrome/115.0.0.0 Safari/537.36" etag="tT54N3PSBEzs5dw2UlDX" version="22.1.3" type="device">
  <diagram name="Page-1" id="7Li9UANoML4oVNlSwk63">
    <mxGraphModel dx="5797" dy="4243" grid="1" gridSize="10" guides="1" tooltips="1" connect="1" arrows="1" fold="1" page="1" pageScale="1" pageWidth="850" pageHeight="1100" math="0" shadow="0">
      <root>
        <mxCell id="0" />
        <mxCell id="1" parent="0" />
        <mxCell id="5Nd1VUIgEl3wB4-zYDqk-30" value="include" style="edgeStyle=orthogonalEdgeStyle;rounded=0;orthogonalLoop=1;jettySize=auto;html=1;fillColor=#dae8fc;strokeColor=#6c8ebf;" parent="1" target="5Nd1VUIgEl3wB4-zYDqk-95" edge="1">
          <mxGeometry relative="1" as="geometry">
            <Array as="points">
              <mxPoint x="430" y="-1500" />
              <mxPoint x="430" y="-560" />
              <mxPoint x="630" y="-560" />
              <mxPoint x="630" y="-550" />
              <mxPoint x="1260" y="-550" />
            </Array>
            <mxPoint x="380" y="-1499.9999999999998" as="sourcePoint" />
            <mxPoint x="1260" y="101.99999999999955" as="targetPoint" />
          </mxGeometry>
        </mxCell>
        <mxCell id="5Nd1VUIgEl3wB4-zYDqk-63" value="include" style="edgeStyle=orthogonalEdgeStyle;rounded=0;orthogonalLoop=1;jettySize=auto;html=1;fillColor=#dae8fc;strokeColor=#6c8ebf;" parent="1" source="5Nd1VUIgEl3wB4-zYDqk-27" target="5Nd1VUIgEl3wB4-zYDqk-88" edge="1">
          <mxGeometry relative="1" as="geometry">
            <Array as="points">
              <mxPoint x="300" y="-1015" />
              <mxPoint x="160" y="-1015" />
            </Array>
          </mxGeometry>
        </mxCell>
        <mxCell id="5i-djBijcil1WzK-Jz-j-38" style="edgeStyle=orthogonalEdgeStyle;rounded=0;orthogonalLoop=1;jettySize=auto;html=1;fillColor=#dae8fc;strokeColor=#6c8ebf;" edge="1" parent="1" source="5Nd1VUIgEl3wB4-zYDqk-27" target="5i-djBijcil1WzK-Jz-j-21">
          <mxGeometry relative="1" as="geometry">
            <Array as="points">
              <mxPoint x="330" y="-970" />
              <mxPoint x="1485" y="-970" />
            </Array>
          </mxGeometry>
        </mxCell>
        <mxCell id="5Nd1VUIgEl3wB4-zYDqk-27" value="config.h" style="swimlane;fontStyle=1;align=center;verticalAlign=middle;childLayout=stackLayout;horizontal=1;startSize=29;horizontalStack=0;resizeParent=1;resizeParentMax=0;resizeLast=0;collapsible=0;marginBottom=0;html=1;whiteSpace=wrap;" parent="1" vertex="1">
          <mxGeometry x="80" y="-2120" width="420" height="640" as="geometry" />
        </mxCell>
        <mxCell id="5Nd1VUIgEl3wB4-zYDqk-31" value="&lt;div&gt;#define WINDOW_WIDTH 800&lt;/div&gt;&lt;div&gt;#define WINDOW_HEIGHT 600&lt;/div&gt;&lt;div&gt;#define WINDOW_TITLE &quot;Fluffy Multiplayer App&quot;&lt;/div&gt;&lt;div&gt;&lt;br&gt;&lt;/div&gt;&lt;div&gt;#define FORM_HIDE_CHARECTER &#39;*&#39;&lt;/div&gt;&lt;div&gt;#define STATES_ASSET_PATH &quot;./assets/states/&quot;&lt;/div&gt;&lt;div&gt;&lt;br&gt;&lt;/div&gt;&lt;div&gt;#define MC_PATH_TO_FONTS &quot;./assets/fonts/&quot;&lt;/div&gt;&lt;div&gt;#define MC_DEFAULT_FONT &quot;arial.ttf&quot;&lt;/div&gt;&lt;div&gt;&lt;br&gt;&lt;/div&gt;&lt;div&gt;#define MC_DEFAULT_PORT 13333&lt;/div&gt;&lt;div&gt;&lt;br&gt;&lt;/div&gt;&lt;div&gt;#define MC_RECEIVE_BUFFER 1024&lt;/div&gt;&lt;div&gt;#define CLIENT_LOCAL_SERVER_LIST_FILE &quot;serverlist.txt&quot;&lt;/div&gt;&lt;div&gt;#define CLIENT_LOCAL_APP_CONFIG_FILE &quot;app.txt&quot;&lt;/div&gt;&lt;div&gt;&lt;br&gt;&lt;/div&gt;&lt;div&gt;#define MC_IP_PORT_SEPARATOR &quot;:&quot;&lt;/div&gt;&lt;div&gt;#define MC_IP_PORT_ENDLINE &quot;;&quot;&lt;/div&gt;&lt;div&gt;&lt;br&gt;&lt;/div&gt;&lt;div&gt;#define MC_APP_CONFIG_IDENTITY_KEY &quot;identity&quot;&lt;/div&gt;&lt;div&gt;#define MC_APP_CONFIG_SEPERATOR &quot;=&quot;&lt;/div&gt;&lt;div&gt;#define MC_APP_CONFIG_ENDLINE &quot;;&quot;&lt;/div&gt;&lt;div&gt;#define MC_IDENTITY_MIN_LENGTH 31&lt;/div&gt;&lt;div&gt;#define MC_IDENTITY_MAX_LENGTH 32&lt;/div&gt;&lt;div&gt;&lt;br&gt;&lt;/div&gt;&lt;div&gt;#define MC_REQUEST_DELIMITER &quot;,&amp;amp;&quot;&lt;/div&gt;&lt;div&gt;#define MC_REQUEST_CLOSER &quot;~&quot;&lt;/div&gt;&lt;div&gt;&lt;br&gt;&lt;/div&gt;&lt;div&gt;#define MC_SERVER_DEFAULT_IP &quot;127.0.0.1&quot;&lt;/div&gt;&lt;div&gt;#define MC_SERVER_DEFAULT_PORT 8888&lt;/div&gt;&lt;div&gt;&lt;br&gt;&lt;/div&gt;&lt;div&gt;#define MC_REQUEST_TIMEOUT 1000&lt;/div&gt;&lt;div&gt;#define MC_STATE_BIND_PICK_PORT_TRY_COUNT 10&lt;/div&gt;&lt;div&gt;&lt;br&gt;&lt;/div&gt;&lt;div&gt;#define MC_MAIN_PAGE_LOBBY_LIST_REFRESH_TIMER 1000&lt;/div&gt;&lt;div&gt;#define MC_MAIN_PAGE_LOBBY_LIST_REFRESH_TIMEOUT 300&lt;/div&gt;&lt;div&gt;&lt;br&gt;&lt;/div&gt;&lt;div&gt;#define MC_MINUMUM_RESPONSE_CODE 100&lt;/div&gt;&lt;div&gt;#define MC_RESPONSE_POSITION_MIN_INDEX 0&lt;/div&gt;&lt;div&gt;#define MC_RESPONSE_POSITION_MAX_INDEX 3&lt;/div&gt;&lt;div&gt;&lt;br&gt;&lt;/div&gt;" style="text;html=1;strokeColor=none;fillColor=none;align=left;verticalAlign=middle;spacingLeft=4;spacingRight=4;overflow=hidden;rotatable=0;points=[[0,0.5],[1,0.5]];portConstraint=eastwest;whiteSpace=wrap;" parent="5Nd1VUIgEl3wB4-zYDqk-27" vertex="1">
          <mxGeometry y="29" width="420" height="611" as="geometry" />
        </mxCell>
        <mxCell id="5Nd1VUIgEl3wB4-zYDqk-101" value="include" style="edgeStyle=orthogonalEdgeStyle;rounded=0;orthogonalLoop=1;jettySize=auto;html=1;fillColor=#008a00;strokeColor=#005700;" parent="1" source="5Nd1VUIgEl3wB4-zYDqk-88" target="5Nd1VUIgEl3wB4-zYDqk-95" edge="1">
          <mxGeometry relative="1" as="geometry">
            <Array as="points">
              <mxPoint x="230" y="-430" />
              <mxPoint x="1465" y="-430" />
            </Array>
          </mxGeometry>
        </mxCell>
        <mxCell id="5i-djBijcil1WzK-Jz-j-177" value="include in all files in this group" style="edgeStyle=orthogonalEdgeStyle;rounded=0;orthogonalLoop=1;jettySize=auto;html=1;fillColor=#008a00;strokeColor=#005700;" edge="1" parent="1" source="5Nd1VUIgEl3wB4-zYDqk-88" target="5i-djBijcil1WzK-Jz-j-176">
          <mxGeometry relative="1" as="geometry" />
        </mxCell>
        <mxCell id="5Nd1VUIgEl3wB4-zYDqk-88" value="." style="swimlane;fontStyle=0;childLayout=stackLayout;horizontal=1;startSize=30;horizontalStack=0;resizeParent=1;resizeParentMax=0;resizeLast=0;collapsible=1;marginBottom=0;whiteSpace=wrap;html=1;" parent="1" vertex="1">
          <mxGeometry x="-70" y="-840" width="440" height="362" as="geometry" />
        </mxCell>
        <mxCell id="5Nd1VUIgEl3wB4-zYDqk-51" value="class AppState" style="swimlane;fontStyle=1;align=center;verticalAlign=top;childLayout=stackLayout;horizontal=1;startSize=26;horizontalStack=0;resizeParent=1;resizeParentMax=0;resizeLast=0;collapsible=1;marginBottom=0;whiteSpace=wrap;html=1;fillColor=#d5e8d4;strokeColor=#82b366;" parent="5Nd1VUIgEl3wB4-zYDqk-88" vertex="1">
          <mxGeometry y="30" width="440" height="332" as="geometry" />
        </mxCell>
        <mxCell id="5Nd1VUIgEl3wB4-zYDqk-53" value="private:" style="swimlane;fontStyle=1;align=center;verticalAlign=top;childLayout=stackLayout;horizontal=1;startSize=26;horizontalStack=0;resizeParent=1;resizeParentMax=0;resizeLast=0;collapsible=1;marginBottom=0;whiteSpace=wrap;html=1;fillColor=#dae8fc;strokeColor=#6c8ebf;" parent="5Nd1VUIgEl3wB4-zYDqk-51" vertex="1">
          <mxGeometry y="26" width="440" height="86" as="geometry" />
        </mxCell>
        <mxCell id="TZRwEb9DX03iSrNKigbo-2" value="sf::Text theText" style="text;strokeColor=none;fillColor=none;align=left;verticalAlign=top;spacingLeft=4;spacingRight=4;overflow=hidden;rotatable=0;points=[[0,0.5],[1,0.5]];portConstraint=eastwest;whiteSpace=wrap;html=1;" parent="5Nd1VUIgEl3wB4-zYDqk-53" vertex="1">
          <mxGeometry y="26" width="440" height="26" as="geometry" />
        </mxCell>
        <mxCell id="TZRwEb9DX03iSrNKigbo-1" value="sf::Font theFont" style="text;strokeColor=none;fillColor=none;align=left;verticalAlign=top;spacingLeft=4;spacingRight=4;overflow=hidden;rotatable=0;points=[[0,0.5],[1,0.5]];portConstraint=eastwest;whiteSpace=wrap;html=1;" parent="5Nd1VUIgEl3wB4-zYDqk-53" vertex="1">
          <mxGeometry y="52" width="440" height="26" as="geometry" />
        </mxCell>
        <mxCell id="5Nd1VUIgEl3wB4-zYDqk-57" value="" style="line;strokeWidth=1;fillColor=none;align=left;verticalAlign=middle;spacingTop=-1;spacingLeft=3;spacingRight=3;rotatable=0;labelPosition=right;points=[];portConstraint=eastwest;strokeColor=inherit;" parent="5Nd1VUIgEl3wB4-zYDqk-53" vertex="1">
          <mxGeometry y="78" width="440" height="8" as="geometry" />
        </mxCell>
        <mxCell id="5Nd1VUIgEl3wB4-zYDqk-81" value="protected:" style="swimlane;fontStyle=1;align=center;verticalAlign=top;childLayout=stackLayout;horizontal=1;startSize=26;horizontalStack=0;resizeParent=1;resizeParentMax=0;resizeLast=0;collapsible=1;marginBottom=0;whiteSpace=wrap;html=1;fillColor=#ffe6cc;strokeColor=#d79b00;" parent="5Nd1VUIgEl3wB4-zYDqk-51" vertex="1">
          <mxGeometry y="112" width="440" height="108" as="geometry" />
        </mxCell>
        <mxCell id="TZRwEb9DX03iSrNKigbo-3" value="&lt;div&gt;void initSimpleText(std::string fontPath, std::string text,&lt;/div&gt;&lt;div&gt;&amp;nbsp; &amp;nbsp; &amp;nbsp; &amp;nbsp; &amp;nbsp; &amp;nbsp; &amp;nbsp; &amp;nbsp; &amp;nbsp; &amp;nbsp; &amp;nbsp; &amp;nbsp; unsigned int fontSize=22,&lt;/div&gt;&lt;div&gt;&amp;nbsp; &amp;nbsp; &amp;nbsp; &amp;nbsp; &amp;nbsp; &amp;nbsp; &amp;nbsp; &amp;nbsp; &amp;nbsp; &amp;nbsp; &amp;nbsp; &amp;nbsp; sf::Color color=sf::Color::White,&lt;/div&gt;&lt;div&gt;&amp;nbsp; &amp;nbsp; &amp;nbsp; &amp;nbsp; &amp;nbsp; &amp;nbsp; &amp;nbsp; &amp;nbsp; &amp;nbsp; &amp;nbsp; &amp;nbsp; &amp;nbsp; bool isBold=true)&lt;/div&gt;" style="text;strokeColor=none;fillColor=none;align=left;verticalAlign=top;spacingLeft=4;spacingRight=4;overflow=hidden;rotatable=0;points=[[0,0.5],[1,0.5]];portConstraint=eastwest;whiteSpace=wrap;html=1;" parent="5Nd1VUIgEl3wB4-zYDqk-81" vertex="1">
          <mxGeometry y="26" width="440" height="74" as="geometry" />
        </mxCell>
        <mxCell id="5Nd1VUIgEl3wB4-zYDqk-85" value="" style="line;strokeWidth=1;fillColor=none;align=left;verticalAlign=middle;spacingTop=-1;spacingLeft=3;spacingRight=3;rotatable=0;labelPosition=right;points=[];portConstraint=eastwest;strokeColor=inherit;" parent="5Nd1VUIgEl3wB4-zYDqk-81" vertex="1">
          <mxGeometry y="100" width="440" height="8" as="geometry" />
        </mxCell>
        <mxCell id="5Nd1VUIgEl3wB4-zYDqk-58" value="public:" style="swimlane;fontStyle=1;align=center;verticalAlign=top;childLayout=stackLayout;horizontal=1;startSize=26;horizontalStack=0;resizeParent=1;resizeParentMax=0;resizeLast=0;collapsible=1;marginBottom=0;whiteSpace=wrap;html=1;fillColor=#f8cecc;strokeColor=#b85450;" parent="5Nd1VUIgEl3wB4-zYDqk-51" vertex="1">
          <mxGeometry y="220" width="440" height="112" as="geometry" />
        </mxCell>
        <mxCell id="5Nd1VUIgEl3wB4-zYDqk-22" value="virtual void render(window&amp;amp;)=0" style="text;strokeColor=none;fillColor=none;align=left;verticalAlign=top;spacingLeft=4;spacingRight=4;overflow=hidden;rotatable=0;points=[[0,0.5],[1,0.5]];portConstraint=eastwest;whiteSpace=wrap;html=1;" parent="5Nd1VUIgEl3wB4-zYDqk-58" vertex="1">
          <mxGeometry y="26" width="440" height="26" as="geometry" />
        </mxCell>
        <mxCell id="5Nd1VUIgEl3wB4-zYDqk-24" value="virtual&amp;nbsp;AppState*&amp;nbsp;update(app&amp;amp;,window&amp;amp;,std::queue&amp;amp;,std::queue&amp;amp;)=0" style="text;strokeColor=none;fillColor=none;align=left;verticalAlign=top;spacingLeft=4;spacingRight=4;overflow=hidden;rotatable=0;points=[[0,0.5],[1,0.5]];portConstraint=eastwest;whiteSpace=wrap;html=1;" parent="5Nd1VUIgEl3wB4-zYDqk-58" vertex="1">
          <mxGeometry y="52" width="440" height="26" as="geometry" />
        </mxCell>
        <mxCell id="5Nd1VUIgEl3wB4-zYDqk-25" value="virtual&amp;nbsp;AppState* eventHandle(app&amp;amp;,event&amp;amp;)=0" style="text;strokeColor=none;fillColor=none;align=left;verticalAlign=top;spacingLeft=4;spacingRight=4;overflow=hidden;rotatable=0;points=[[0,0.5],[1,0.5]];portConstraint=eastwest;whiteSpace=wrap;html=1;" parent="5Nd1VUIgEl3wB4-zYDqk-58" vertex="1">
          <mxGeometry y="78" width="440" height="26" as="geometry" />
        </mxCell>
        <mxCell id="5Nd1VUIgEl3wB4-zYDqk-62" value="" style="line;strokeWidth=1;fillColor=none;align=left;verticalAlign=middle;spacingTop=-1;spacingLeft=3;spacingRight=3;rotatable=0;labelPosition=right;points=[];portConstraint=eastwest;strokeColor=inherit;" parent="5Nd1VUIgEl3wB4-zYDqk-58" vertex="1">
          <mxGeometry y="104" width="440" height="8" as="geometry" />
        </mxCell>
        <mxCell id="5i-djBijcil1WzK-Jz-j-40" style="edgeStyle=orthogonalEdgeStyle;rounded=0;orthogonalLoop=1;jettySize=auto;html=1;fillColor=#e1d5e7;strokeColor=#9673a6;" edge="1" parent="1" source="5Nd1VUIgEl3wB4-zYDqk-95" target="5Nd1VUIgEl3wB4-zYDqk-88">
          <mxGeometry relative="1" as="geometry">
            <Array as="points">
              <mxPoint x="1400" y="680" />
              <mxPoint x="1030" y="680" />
              <mxPoint x="1030" y="-290" />
              <mxPoint x="830" y="-290" />
              <mxPoint x="830" y="-870" />
              <mxPoint x="240" y="-870" />
            </Array>
          </mxGeometry>
        </mxCell>
        <mxCell id="5i-djBijcil1WzK-Jz-j-41" style="edgeStyle=orthogonalEdgeStyle;rounded=0;orthogonalLoop=1;jettySize=auto;html=1;" edge="1" parent="1" source="5Nd1VUIgEl3wB4-zYDqk-95" target="_5e1NiXmXlnZ3C8gSHap-7">
          <mxGeometry relative="1" as="geometry" />
        </mxCell>
        <mxCell id="5Nd1VUIgEl3wB4-zYDqk-95" value="." style="swimlane;fontStyle=0;childLayout=stackLayout;horizontal=1;startSize=30;horizontalStack=0;resizeParent=1;resizeParentMax=0;resizeLast=0;collapsible=1;marginBottom=0;whiteSpace=wrap;html=1;" parent="1" vertex="1">
          <mxGeometry x="1260" y="-390" width="410" height="1004" as="geometry" />
        </mxCell>
        <mxCell id="5Nd1VUIgEl3wB4-zYDqk-9" value="class App" style="swimlane;fontStyle=1;align=center;verticalAlign=top;childLayout=stackLayout;horizontal=1;startSize=26;horizontalStack=0;resizeParent=1;resizeParentMax=0;resizeLast=0;collapsible=1;marginBottom=0;whiteSpace=wrap;html=1;fillColor=#d5e8d4;strokeColor=#82b366;" parent="5Nd1VUIgEl3wB4-zYDqk-95" vertex="1">
          <mxGeometry y="30" width="410" height="974" as="geometry" />
        </mxCell>
        <mxCell id="5Nd1VUIgEl3wB4-zYDqk-33" value="private:" style="swimlane;fontStyle=1;align=center;verticalAlign=top;childLayout=stackLayout;horizontal=1;startSize=26;horizontalStack=0;resizeParent=1;resizeParentMax=0;resizeLast=0;collapsible=1;marginBottom=0;whiteSpace=wrap;html=1;fillColor=#dae8fc;strokeColor=#6c8ebf;" parent="5Nd1VUIgEl3wB4-zYDqk-9" vertex="1">
          <mxGeometry y="26" width="410" height="346" as="geometry" />
        </mxCell>
        <mxCell id="5Nd1VUIgEl3wB4-zYDqk-147" value="AnAddress serverAddress" style="text;strokeColor=none;fillColor=none;align=left;verticalAlign=top;spacingLeft=4;spacingRight=4;overflow=hidden;rotatable=0;points=[[0,0.5],[1,0.5]];portConstraint=eastwest;whiteSpace=wrap;html=1;" parent="5Nd1VUIgEl3wB4-zYDqk-33" vertex="1">
          <mxGeometry y="26" width="410" height="26" as="geometry" />
        </mxCell>
        <mxCell id="_5e1NiXmXlnZ3C8gSHap-3" value="unsigned short appPort" style="text;strokeColor=none;fillColor=none;align=left;verticalAlign=top;spacingLeft=4;spacingRight=4;overflow=hidden;rotatable=0;points=[[0,0.5],[1,0.5]];portConstraint=eastwest;whiteSpace=wrap;html=1;" parent="5Nd1VUIgEl3wB4-zYDqk-33" vertex="1">
          <mxGeometry y="52" width="410" height="26" as="geometry" />
        </mxCell>
        <mxCell id="5i-djBijcil1WzK-Jz-j-6" value="std::string identity" style="text;strokeColor=none;fillColor=none;align=left;verticalAlign=top;spacingLeft=4;spacingRight=4;overflow=hidden;rotatable=0;points=[[0,0.5],[1,0.5]];portConstraint=eastwest;whiteSpace=wrap;html=1;" vertex="1" parent="5Nd1VUIgEl3wB4-zYDqk-33">
          <mxGeometry y="78" width="410" height="26" as="geometry" />
        </mxCell>
        <mxCell id="5i-djBijcil1WzK-Jz-j-11" value="void receiveData()" style="text;strokeColor=none;fillColor=none;align=left;verticalAlign=top;spacingLeft=4;spacingRight=4;overflow=hidden;rotatable=0;points=[[0,0.5],[1,0.5]];portConstraint=eastwest;whiteSpace=wrap;html=1;" vertex="1" parent="5Nd1VUIgEl3wB4-zYDqk-33">
          <mxGeometry y="104" width="410" height="26" as="geometry" />
        </mxCell>
        <mxCell id="5i-djBijcil1WzK-Jz-j-12" value="void sendData()" style="text;strokeColor=none;fillColor=none;align=left;verticalAlign=top;spacingLeft=4;spacingRight=4;overflow=hidden;rotatable=0;points=[[0,0.5],[1,0.5]];portConstraint=eastwest;whiteSpace=wrap;html=1;" vertex="1" parent="5Nd1VUIgEl3wB4-zYDqk-33">
          <mxGeometry y="130" width="410" height="26" as="geometry" />
        </mxCell>
        <mxCell id="5i-djBijcil1WzK-Jz-j-8" value="FluffyMultiplayer::UdpSocket socket;" style="text;strokeColor=none;fillColor=none;align=left;verticalAlign=top;spacingLeft=4;spacingRight=4;overflow=hidden;rotatable=0;points=[[0,0.5],[1,0.5]];portConstraint=eastwest;whiteSpace=wrap;html=1;" vertex="1" parent="5Nd1VUIgEl3wB4-zYDqk-33">
          <mxGeometry y="156" width="410" height="26" as="geometry" />
        </mxCell>
        <mxCell id="5i-djBijcil1WzK-Jz-j-9" value="boost::asio::io_context io_context" style="text;strokeColor=none;fillColor=none;align=left;verticalAlign=top;spacingLeft=4;spacingRight=4;overflow=hidden;rotatable=0;points=[[0,0.5],[1,0.5]];portConstraint=eastwest;whiteSpace=wrap;html=1;" vertex="1" parent="5Nd1VUIgEl3wB4-zYDqk-33">
          <mxGeometry y="182" width="410" height="26" as="geometry" />
        </mxCell>
        <mxCell id="5i-djBijcil1WzK-Jz-j-10" value="bool&amp;nbsp;sendDataStatus //is a flag to turn off/on thread to do action send" style="text;strokeColor=none;fillColor=none;align=left;verticalAlign=top;spacingLeft=4;spacingRight=4;overflow=hidden;rotatable=0;points=[[0,0.5],[1,0.5]];portConstraint=eastwest;whiteSpace=wrap;html=1;" vertex="1" parent="5Nd1VUIgEl3wB4-zYDqk-33">
          <mxGeometry y="208" width="410" height="26" as="geometry" />
        </mxCell>
        <mxCell id="_5e1NiXmXlnZ3C8gSHap-56" value="bool&amp;nbsp;receiveDataStatus //is a flag to turn off/on thread to do action receive" style="text;strokeColor=none;fillColor=none;align=left;verticalAlign=top;spacingLeft=4;spacingRight=4;overflow=hidden;rotatable=0;points=[[0,0.5],[1,0.5]];portConstraint=eastwest;whiteSpace=wrap;html=1;" parent="5Nd1VUIgEl3wB4-zYDqk-33" vertex="1">
          <mxGeometry y="234" width="410" height="26" as="geometry" />
        </mxCell>
        <mxCell id="5Nd1VUIgEl3wB4-zYDqk-42" value="AppState* currentState" style="text;strokeColor=none;fillColor=none;align=left;verticalAlign=top;spacingLeft=4;spacingRight=4;overflow=hidden;rotatable=0;points=[[0,0.5],[1,0.5]];portConstraint=eastwest;whiteSpace=wrap;html=1;" parent="5Nd1VUIgEl3wB4-zYDqk-33" vertex="1">
          <mxGeometry y="260" width="410" height="26" as="geometry" />
        </mxCell>
        <mxCell id="_MR5lmJ_xEQnUR5iK06d-57" value="std::queue&amp;lt;LobbyData&amp;gt;* lobbyList" style="text;strokeColor=none;fillColor=none;align=left;verticalAlign=top;spacingLeft=4;spacingRight=4;overflow=hidden;rotatable=0;points=[[0,0.5],[1,0.5]];portConstraint=eastwest;whiteSpace=wrap;html=1;" parent="5Nd1VUIgEl3wB4-zYDqk-33" vertex="1">
          <mxGeometry y="286" width="410" height="26" as="geometry" />
        </mxCell>
        <mxCell id="_5e1NiXmXlnZ3C8gSHap-2" value="std::queue&amp;lt;AnAddress&amp;gt; serverList;" style="text;strokeColor=none;fillColor=none;align=left;verticalAlign=top;spacingLeft=4;spacingRight=4;overflow=hidden;rotatable=0;points=[[0,0.5],[1,0.5]];portConstraint=eastwest;whiteSpace=wrap;html=1;" parent="5Nd1VUIgEl3wB4-zYDqk-33" vertex="1">
          <mxGeometry y="312" width="410" height="26" as="geometry" />
        </mxCell>
        <mxCell id="5Nd1VUIgEl3wB4-zYDqk-35" value="" style="line;strokeWidth=1;fillColor=none;align=left;verticalAlign=middle;spacingTop=-1;spacingLeft=3;spacingRight=3;rotatable=0;labelPosition=right;points=[];portConstraint=eastwest;strokeColor=inherit;" parent="5Nd1VUIgEl3wB4-zYDqk-33" vertex="1">
          <mxGeometry y="338" width="410" height="8" as="geometry" />
        </mxCell>
        <mxCell id="5Nd1VUIgEl3wB4-zYDqk-39" value="public:" style="swimlane;fontStyle=1;align=center;verticalAlign=top;childLayout=stackLayout;horizontal=1;startSize=26;horizontalStack=0;resizeParent=1;resizeParentMax=0;resizeLast=0;collapsible=1;marginBottom=0;whiteSpace=wrap;html=1;fillColor=#f8cecc;strokeColor=#b85450;" parent="5Nd1VUIgEl3wB4-zYDqk-9" vertex="1">
          <mxGeometry y="372" width="410" height="602" as="geometry" />
        </mxCell>
        <mxCell id="5Nd1VUIgEl3wB4-zYDqk-34" value="sf::RenderWindow appWindow" style="text;strokeColor=none;fillColor=none;align=left;verticalAlign=top;spacingLeft=4;spacingRight=4;overflow=hidden;rotatable=0;points=[[0,0.5],[1,0.5]];portConstraint=eastwest;whiteSpace=wrap;html=1;" parent="5Nd1VUIgEl3wB4-zYDqk-39" vertex="1">
          <mxGeometry y="26" width="410" height="26" as="geometry" />
        </mxCell>
        <mxCell id="5i-djBijcil1WzK-Jz-j-13" value="boost::thread receive_thread" style="text;strokeColor=none;fillColor=none;align=left;verticalAlign=top;spacingLeft=4;spacingRight=4;overflow=hidden;rotatable=0;points=[[0,0.5],[1,0.5]];portConstraint=eastwest;whiteSpace=wrap;html=1;" vertex="1" parent="5Nd1VUIgEl3wB4-zYDqk-39">
          <mxGeometry y="52" width="410" height="26" as="geometry" />
        </mxCell>
        <mxCell id="5i-djBijcil1WzK-Jz-j-14" value="boost::thread send_thread" style="text;strokeColor=none;fillColor=none;align=left;verticalAlign=top;spacingLeft=4;spacingRight=4;overflow=hidden;rotatable=0;points=[[0,0.5],[1,0.5]];portConstraint=eastwest;whiteSpace=wrap;html=1;" vertex="1" parent="5Nd1VUIgEl3wB4-zYDqk-39">
          <mxGeometry y="78" width="410" height="26" as="geometry" />
        </mxCell>
        <mxCell id="5Nd1VUIgEl3wB4-zYDqk-15" value="App() : window(WINDOW_WIDTH,WINDOW_HEIGHT, WINDOW_TITEL),&lt;br&gt;socket(io_contet,MC_DEFAULT_PORT" style="text;strokeColor=none;fillColor=none;align=left;verticalAlign=top;spacingLeft=4;spacingRight=4;overflow=hidden;rotatable=0;points=[[0,0.5],[1,0.5]];portConstraint=eastwest;whiteSpace=wrap;html=1;" parent="5Nd1VUIgEl3wB4-zYDqk-39" vertex="1">
          <mxGeometry y="104" width="410" height="46" as="geometry" />
        </mxCell>
        <mxCell id="5Nd1VUIgEl3wB4-zYDqk-106" value="~App()" style="text;strokeColor=none;fillColor=none;align=left;verticalAlign=top;spacingLeft=4;spacingRight=4;overflow=hidden;rotatable=0;points=[[0,0.5],[1,0.5]];portConstraint=eastwest;whiteSpace=wrap;html=1;" parent="5Nd1VUIgEl3wB4-zYDqk-39" vertex="1">
          <mxGeometry y="150" width="410" height="26" as="geometry" />
        </mxCell>
        <mxCell id="5Nd1VUIgEl3wB4-zYDqk-12" value="void init () //init app" style="text;strokeColor=none;fillColor=none;align=left;verticalAlign=top;spacingLeft=4;spacingRight=4;overflow=hidden;rotatable=0;points=[[0,0.5],[1,0.5]];portConstraint=eastwest;whiteSpace=wrap;html=1;" parent="5Nd1VUIgEl3wB4-zYDqk-39" vertex="1">
          <mxGeometry y="176" width="410" height="26" as="geometry" />
        </mxCell>
        <mxCell id="5Nd1VUIgEl3wB4-zYDqk-46" value="void run() //app main loop" style="text;strokeColor=none;fillColor=none;align=left;verticalAlign=top;spacingLeft=4;spacingRight=4;overflow=hidden;rotatable=0;points=[[0,0.5],[1,0.5]];portConstraint=eastwest;whiteSpace=wrap;html=1;" parent="5Nd1VUIgEl3wB4-zYDqk-39" vertex="1">
          <mxGeometry y="202" width="410" height="28" as="geometry" />
        </mxCell>
        <mxCell id="5i-djBijcil1WzK-Jz-j-15" value="void clearIdentity(std::string)" style="text;strokeColor=none;fillColor=none;align=left;verticalAlign=top;spacingLeft=4;spacingRight=4;overflow=hidden;rotatable=0;points=[[0,0.5],[1,0.5]];portConstraint=eastwest;whiteSpace=wrap;html=1;" vertex="1" parent="5Nd1VUIgEl3wB4-zYDqk-39">
          <mxGeometry y="230" width="410" height="26" as="geometry" />
        </mxCell>
        <mxCell id="5i-djBijcil1WzK-Jz-j-16" value="std::string getIdentity() const" style="text;strokeColor=none;fillColor=none;align=left;verticalAlign=top;spacingLeft=4;spacingRight=4;overflow=hidden;rotatable=0;points=[[0,0.5],[1,0.5]];portConstraint=eastwest;whiteSpace=wrap;html=1;" vertex="1" parent="5Nd1VUIgEl3wB4-zYDqk-39">
          <mxGeometry y="256" width="410" height="26" as="geometry" />
        </mxCell>
        <mxCell id="_5e1NiXmXlnZ3C8gSHap-5" value="fluffyMultiplayer::AnAddress getServerAddress() const" style="text;strokeColor=none;fillColor=none;align=left;verticalAlign=top;spacingLeft=4;spacingRight=4;overflow=hidden;rotatable=0;points=[[0,0.5],[1,0.5]];portConstraint=eastwest;whiteSpace=wrap;html=1;" parent="5Nd1VUIgEl3wB4-zYDqk-39" vertex="1">
          <mxGeometry y="282" width="410" height="26" as="geometry" />
        </mxCell>
        <mxCell id="_5e1NiXmXlnZ3C8gSHap-52" value="void addServer(fluffyMultiplayer::AnAddress)" style="text;strokeColor=none;fillColor=none;align=left;verticalAlign=top;spacingLeft=4;spacingRight=4;overflow=hidden;rotatable=0;points=[[0,0.5],[1,0.5]];portConstraint=eastwest;whiteSpace=wrap;html=1;" parent="5Nd1VUIgEl3wB4-zYDqk-39" vertex="1">
          <mxGeometry y="308" width="410" height="26" as="geometry" />
        </mxCell>
        <mxCell id="5Nd1VUIgEl3wB4-zYDqk-149" value="void setServer(fluffyMultiplayer::AnAddress)" style="text;strokeColor=none;fillColor=none;align=left;verticalAlign=top;spacingLeft=4;spacingRight=4;overflow=hidden;rotatable=0;points=[[0,0.5],[1,0.5]];portConstraint=eastwest;whiteSpace=wrap;html=1;" parent="5Nd1VUIgEl3wB4-zYDqk-39" vertex="1">
          <mxGeometry y="334" width="410" height="26" as="geometry" />
        </mxCell>
        <mxCell id="5i-djBijcil1WzK-Jz-j-17" value="AnAddress popServerAddress()" style="text;strokeColor=none;fillColor=none;align=left;verticalAlign=top;spacingLeft=4;spacingRight=4;overflow=hidden;rotatable=0;points=[[0,0.5],[1,0.5]];portConstraint=eastwest;whiteSpace=wrap;html=1;" vertex="1" parent="5Nd1VUIgEl3wB4-zYDqk-39">
          <mxGeometry y="360" width="410" height="26" as="geometry" />
        </mxCell>
        <mxCell id="_MR5lmJ_xEQnUR5iK06d-30" value="int getServerListCount()" style="text;strokeColor=none;fillColor=none;align=left;verticalAlign=top;spacingLeft=4;spacingRight=4;overflow=hidden;rotatable=0;points=[[0,0.5],[1,0.5]];portConstraint=eastwest;whiteSpace=wrap;html=1;" parent="5Nd1VUIgEl3wB4-zYDqk-39" vertex="1">
          <mxGeometry y="386" width="410" height="26" as="geometry" />
        </mxCell>
        <mxCell id="_5e1NiXmXlnZ3C8gSHap-70" value="void setAppPort(unsigned short)" style="text;strokeColor=none;fillColor=none;align=left;verticalAlign=top;spacingLeft=4;spacingRight=4;overflow=hidden;rotatable=0;points=[[0,0.5],[1,0.5]];portConstraint=eastwest;whiteSpace=wrap;html=1;" parent="5Nd1VUIgEl3wB4-zYDqk-39" vertex="1">
          <mxGeometry y="412" width="410" height="26" as="geometry" />
        </mxCell>
        <mxCell id="_5e1NiXmXlnZ3C8gSHap-54" value="unsigned short getAppPort() const" style="text;strokeColor=none;fillColor=none;align=left;verticalAlign=top;spacingLeft=4;spacingRight=4;overflow=hidden;rotatable=0;points=[[0,0.5],[1,0.5]];portConstraint=eastwest;whiteSpace=wrap;html=1;" parent="5Nd1VUIgEl3wB4-zYDqk-39" vertex="1">
          <mxGeometry y="438" width="410" height="26" as="geometry" />
        </mxCell>
        <mxCell id="_5e1NiXmXlnZ3C8gSHap-57" value="bool&amp;nbsp;getReceiveDataStatus() const" style="text;strokeColor=none;fillColor=none;align=left;verticalAlign=top;spacingLeft=4;spacingRight=4;overflow=hidden;rotatable=0;points=[[0,0.5],[1,0.5]];portConstraint=eastwest;whiteSpace=wrap;html=1;" parent="5Nd1VUIgEl3wB4-zYDqk-39" vertex="1">
          <mxGeometry y="464" width="410" height="26" as="geometry" />
        </mxCell>
        <mxCell id="_5e1NiXmXlnZ3C8gSHap-58" value="bool&amp;nbsp;getSendDataStatus() const" style="text;strokeColor=none;fillColor=none;align=left;verticalAlign=top;spacingLeft=4;spacingRight=4;overflow=hidden;rotatable=0;points=[[0,0.5],[1,0.5]];portConstraint=eastwest;whiteSpace=wrap;html=1;" parent="5Nd1VUIgEl3wB4-zYDqk-39" vertex="1">
          <mxGeometry y="490" width="410" height="26" as="geometry" />
        </mxCell>
        <mxCell id="_5e1NiXmXlnZ3C8gSHap-59" value="void setReceiveDataStatus(bool)" style="text;strokeColor=none;fillColor=none;align=left;verticalAlign=top;spacingLeft=4;spacingRight=4;overflow=hidden;rotatable=0;points=[[0,0.5],[1,0.5]];portConstraint=eastwest;whiteSpace=wrap;html=1;" parent="5Nd1VUIgEl3wB4-zYDqk-39" vertex="1">
          <mxGeometry y="516" width="410" height="26" as="geometry" />
        </mxCell>
        <mxCell id="_5e1NiXmXlnZ3C8gSHap-60" value="void setSendDataStatus(bool)" style="text;strokeColor=none;fillColor=none;align=left;verticalAlign=top;spacingLeft=4;spacingRight=4;overflow=hidden;rotatable=0;points=[[0,0.5],[1,0.5]];portConstraint=eastwest;whiteSpace=wrap;html=1;" parent="5Nd1VUIgEl3wB4-zYDqk-39" vertex="1">
          <mxGeometry y="542" width="410" height="26" as="geometry" />
        </mxCell>
        <mxCell id="5i-djBijcil1WzK-Jz-j-19" value="void openGame(AnAddress)" style="text;strokeColor=none;fillColor=none;align=left;verticalAlign=top;spacingLeft=4;spacingRight=4;overflow=hidden;rotatable=0;points=[[0,0.5],[1,0.5]];portConstraint=eastwest;whiteSpace=wrap;html=1;" vertex="1" parent="5Nd1VUIgEl3wB4-zYDqk-39">
          <mxGeometry y="568" width="410" height="26" as="geometry" />
        </mxCell>
        <mxCell id="5Nd1VUIgEl3wB4-zYDqk-41" value="" style="line;strokeWidth=1;fillColor=none;align=left;verticalAlign=middle;spacingTop=-1;spacingLeft=3;spacingRight=3;rotatable=0;labelPosition=right;points=[];portConstraint=eastwest;strokeColor=inherit;" parent="5Nd1VUIgEl3wB4-zYDqk-39" vertex="1">
          <mxGeometry y="594" width="410" height="8" as="geometry" />
        </mxCell>
        <mxCell id="_5e1NiXmXlnZ3C8gSHap-7" value="main.cpp" style="swimlane;fontStyle=0;childLayout=stackLayout;horizontal=1;startSize=30;horizontalStack=0;resizeParent=1;resizeParentMax=0;resizeLast=0;collapsible=1;marginBottom=0;whiteSpace=wrap;html=1;" parent="1" vertex="1">
          <mxGeometry x="1250" y="790" width="410" height="60" as="geometry" />
        </mxCell>
        <mxCell id="_5e1NiXmXlnZ3C8gSHap-45" value="FluffyMultiplayer::App app" style="text;strokeColor=none;fillColor=none;align=left;verticalAlign=middle;spacingLeft=4;spacingRight=4;overflow=hidden;points=[[0,0.5],[1,0.5]];portConstraint=eastwest;rotatable=0;whiteSpace=wrap;html=1;" parent="_5e1NiXmXlnZ3C8gSHap-7" vertex="1">
          <mxGeometry y="30" width="410" height="30" as="geometry" />
        </mxCell>
        <mxCell id="_MR5lmJ_xEQnUR5iK06d-101" value="include`" style="edgeStyle=orthogonalEdgeStyle;rounded=0;orthogonalLoop=1;jettySize=auto;html=1;fillColor=#f8cecc;strokeColor=#b85450;" parent="1" source="_5e1NiXmXlnZ3C8gSHap-61" target="5Nd1VUIgEl3wB4-zYDqk-95" edge="1">
          <mxGeometry relative="1" as="geometry">
            <Array as="points">
              <mxPoint x="740" y="-510" />
              <mxPoint x="1360" y="-510" />
            </Array>
          </mxGeometry>
        </mxCell>
        <mxCell id="5i-djBijcil1WzK-Jz-j-37" style="edgeStyle=orthogonalEdgeStyle;rounded=0;orthogonalLoop=1;jettySize=auto;html=1;fillColor=#f8cecc;strokeColor=#b85450;" edge="1" parent="1" source="_5e1NiXmXlnZ3C8gSHap-61" target="5i-djBijcil1WzK-Jz-j-21">
          <mxGeometry relative="1" as="geometry">
            <Array as="points">
              <mxPoint x="800" y="-1000" />
              <mxPoint x="1450" y="-1000" />
            </Array>
          </mxGeometry>
        </mxCell>
        <mxCell id="5i-djBijcil1WzK-Jz-j-39" style="edgeStyle=orthogonalEdgeStyle;rounded=0;orthogonalLoop=1;jettySize=auto;html=1;fillColor=#f8cecc;strokeColor=#b85450;" edge="1" parent="1" source="_5e1NiXmXlnZ3C8gSHap-61" target="5Nd1VUIgEl3wB4-zYDqk-88">
          <mxGeometry relative="1" as="geometry">
            <Array as="points">
              <mxPoint x="690" y="-910" />
              <mxPoint x="200" y="-910" />
            </Array>
          </mxGeometry>
        </mxCell>
        <mxCell id="_5e1NiXmXlnZ3C8gSHap-61" value="dataType.h" style="swimlane;fontStyle=0;childLayout=stackLayout;horizontal=1;startSize=30;horizontalStack=0;resizeParent=1;resizeParentMax=0;resizeLast=0;collapsible=1;marginBottom=0;whiteSpace=wrap;html=1;fillColor=#fa6800;strokeColor=#C73500;fontColor=#000000;" parent="1" vertex="1">
          <mxGeometry x="600" y="-2140" width="380" height="700" as="geometry" />
        </mxCell>
        <mxCell id="_5e1NiXmXlnZ3C8gSHap-64" value="struct AnAddress { boost::asio::ip::address ip;&amp;nbsp; unsigned short port};" style="text;strokeColor=none;fillColor=none;align=left;verticalAlign=middle;spacingLeft=4;spacingRight=4;overflow=hidden;points=[[0,0.5],[1,0.5]];portConstraint=eastwest;rotatable=0;whiteSpace=wrap;html=1;" parent="_5e1NiXmXlnZ3C8gSHap-61" vertex="1">
          <mxGeometry y="30" width="380" height="30" as="geometry" />
        </mxCell>
        <mxCell id="_MR5lmJ_xEQnUR5iK06d-58" value="&lt;span style=&quot;background-color: initial;&quot;&gt;struct LobbyData&lt;/span&gt;&lt;br&gt;&lt;div&gt;&amp;nbsp; {&lt;/div&gt;&lt;div&gt;&amp;nbsp; &amp;nbsp; &amp;nbsp;bool isLocked;&lt;/div&gt;&lt;div&gt;&amp;nbsp; &amp;nbsp; &amp;nbsp;bool isVoiceChatForbidden;&lt;/div&gt;&lt;div&gt;&amp;nbsp; &amp;nbsp; &amp;nbsp;bool isTextChatForbidden;&lt;/div&gt;&lt;div&gt;&amp;nbsp; &amp;nbsp; &amp;nbsp;bool isSpecterForbidden;&lt;/div&gt;&lt;div&gt;&amp;nbsp; &amp;nbsp; &amp;nbsp;bool lobbyStatusInGame;&lt;/div&gt;&lt;div&gt;&amp;nbsp; &amp;nbsp; &amp;nbsp;bool showLobbyInList;&lt;/div&gt;&lt;div&gt;&amp;nbsp; &amp;nbsp; &amp;nbsp;int maxPlayers;&lt;span style=&quot;&quot;&gt;&lt;/span&gt;&lt;/div&gt;&lt;div&gt;&amp;nbsp; &amp;nbsp; &amp;nbsp;int currentPlayers;&lt;/div&gt;&lt;div&gt;&lt;div style=&quot;border-color: var(--border-color);&quot;&gt;&amp;nbsp; &amp;nbsp; &amp;nbsp;int gameMode;&lt;/div&gt;&lt;/div&gt;&lt;div&gt;&amp;nbsp; &amp;nbsp; &amp;nbsp;std::string address;&lt;/div&gt;&lt;div&gt;&lt;span style=&quot;background-color: initial;&quot;&gt;&amp;nbsp; };&lt;/span&gt;&lt;br&gt;&lt;/div&gt;" style="text;strokeColor=none;fillColor=none;align=left;verticalAlign=middle;spacingLeft=4;spacingRight=4;overflow=hidden;points=[[0,0.5],[1,0.5]];portConstraint=eastwest;rotatable=0;whiteSpace=wrap;html=1;" parent="_5e1NiXmXlnZ3C8gSHap-61" vertex="1">
          <mxGeometry y="60" width="380" height="210" as="geometry" />
        </mxCell>
        <mxCell id="5i-djBijcil1WzK-Jz-j-2" value="&lt;div&gt;&amp;nbsp; struct LoginFormData&lt;/div&gt;&lt;div&gt;&amp;nbsp; {&lt;/div&gt;&lt;div&gt;&amp;nbsp; &amp;nbsp; &amp;nbsp; std::array&amp;lt;std::string,2&amp;gt; _inputs;&lt;/div&gt;&lt;div&gt;&amp;nbsp; &amp;nbsp; &amp;nbsp; std::array&amp;lt;std::string,2&amp;gt; _errors;&lt;/div&gt;&lt;div&gt;&amp;nbsp; &amp;nbsp; &amp;nbsp; bool _saveLoginStatus;&lt;/div&gt;&lt;div&gt;&amp;nbsp; &amp;nbsp; &amp;nbsp; std::string identity;&lt;/div&gt;&lt;div&gt;&amp;nbsp; };&lt;/div&gt;" style="text;strokeColor=none;fillColor=none;align=left;verticalAlign=middle;spacingLeft=4;spacingRight=4;overflow=hidden;points=[[0,0.5],[1,0.5]];portConstraint=eastwest;rotatable=0;whiteSpace=wrap;html=1;" vertex="1" parent="_5e1NiXmXlnZ3C8gSHap-61">
          <mxGeometry y="270" width="380" height="110" as="geometry" />
        </mxCell>
        <mxCell id="5i-djBijcil1WzK-Jz-j-1" value="&lt;div&gt;struct RegisterFormData&lt;/div&gt;&lt;div&gt;&amp;nbsp; {&lt;/div&gt;&lt;div&gt;&amp;nbsp; &amp;nbsp; std::array&amp;lt;std::string,3&amp;gt; _inputs;&lt;/div&gt;&lt;div&gt;&amp;nbsp; &amp;nbsp; std::array&amp;lt;std::string,3&amp;gt; _errors;&lt;/div&gt;&lt;div&gt;&amp;nbsp; &amp;nbsp; std::string identity;&lt;/div&gt;&lt;div&gt;&amp;nbsp; };&lt;/div&gt;" style="text;strokeColor=none;fillColor=none;align=left;verticalAlign=middle;spacingLeft=4;spacingRight=4;overflow=hidden;points=[[0,0.5],[1,0.5]];portConstraint=eastwest;rotatable=0;whiteSpace=wrap;html=1;" vertex="1" parent="_5e1NiXmXlnZ3C8gSHap-61">
          <mxGeometry y="380" width="380" height="110" as="geometry" />
        </mxCell>
        <mxCell id="TZRwEb9DX03iSrNKigbo-78" value="&lt;div&gt;struct CreateLobbyFormData&lt;/div&gt;&lt;div&gt;&amp;nbsp; {&lt;/div&gt;&lt;div&gt;&amp;nbsp; &amp;nbsp; int gameMode;&lt;/div&gt;&lt;div&gt;&amp;nbsp; &amp;nbsp; int maxPlayers;&lt;/div&gt;&lt;div&gt;&amp;nbsp; &amp;nbsp; bool isTextChatAllowed;&lt;/div&gt;&lt;div&gt;&amp;nbsp; &amp;nbsp; bool isVoiceChatAllowed;&lt;/div&gt;&lt;div&gt;&amp;nbsp; &amp;nbsp; bool isSpecterAllowed;&lt;/div&gt;&lt;div&gt;&amp;nbsp; &amp;nbsp; std::string password;&lt;/div&gt;&lt;div&gt;&amp;nbsp; &amp;nbsp; std::string globalErrors; //like you&#39;re limited, maxplayers is invalid and so&lt;/div&gt;&lt;div&gt;&amp;nbsp; &amp;nbsp; FluffyMultiplayer::AnAddress address;&lt;/div&gt;&lt;div&gt;&amp;nbsp; };&lt;/div&gt;" style="text;strokeColor=none;fillColor=none;align=left;verticalAlign=middle;spacingLeft=4;spacingRight=4;overflow=hidden;points=[[0,0.5],[1,0.5]];portConstraint=eastwest;rotatable=0;whiteSpace=wrap;html=1;" parent="_5e1NiXmXlnZ3C8gSHap-61" vertex="1">
          <mxGeometry y="490" width="380" height="210" as="geometry" />
        </mxCell>
        <mxCell id="5i-djBijcil1WzK-Jz-j-20" style="edgeStyle=orthogonalEdgeStyle;rounded=0;orthogonalLoop=1;jettySize=auto;html=1;" edge="1" parent="1" source="_MR5lmJ_xEQnUR5iK06d-1" target="5Nd1VUIgEl3wB4-zYDqk-95">
          <mxGeometry relative="1" as="geometry">
            <Array as="points">
              <mxPoint x="985" y="-495" />
              <mxPoint x="980" y="-495" />
              <mxPoint x="980" y="-460" />
              <mxPoint x="1300" y="-460" />
            </Array>
          </mxGeometry>
        </mxCell>
        <mxCell id="_MR5lmJ_xEQnUR5iK06d-1" value="class DataSecurity" style="swimlane;fontStyle=1;align=center;verticalAlign=top;childLayout=stackLayout;horizontal=1;startSize=26;horizontalStack=0;resizeParent=1;resizeParentMax=0;resizeLast=0;collapsible=1;marginBottom=0;whiteSpace=wrap;html=1;fillColor=#d5e8d4;strokeColor=#82b366;" parent="1" vertex="1">
          <mxGeometry x="865" y="-890" width="410" height="164" as="geometry" />
        </mxCell>
        <mxCell id="_MR5lmJ_xEQnUR5iK06d-10" value="public:" style="swimlane;fontStyle=1;align=center;verticalAlign=top;childLayout=stackLayout;horizontal=1;startSize=26;horizontalStack=0;resizeParent=1;resizeParentMax=0;resizeLast=0;collapsible=1;marginBottom=0;whiteSpace=wrap;html=1;fillColor=#f8cecc;strokeColor=#b85450;" parent="_MR5lmJ_xEQnUR5iK06d-1" vertex="1">
          <mxGeometry y="26" width="410" height="138" as="geometry" />
        </mxCell>
        <mxCell id="_MR5lmJ_xEQnUR5iK06d-26" value="DataSecurity();" style="text;strokeColor=none;fillColor=none;align=left;verticalAlign=top;spacingLeft=4;spacingRight=4;overflow=hidden;rotatable=0;points=[[0,0.5],[1,0.5]];portConstraint=eastwest;whiteSpace=wrap;html=1;" parent="_MR5lmJ_xEQnUR5iK06d-10" vertex="1">
          <mxGeometry y="26" width="410" height="26" as="geometry" />
        </mxCell>
        <mxCell id="_MR5lmJ_xEQnUR5iK06d-27" value="~DataSecurity();" style="text;strokeColor=none;fillColor=none;align=left;verticalAlign=top;spacingLeft=4;spacingRight=4;overflow=hidden;rotatable=0;points=[[0,0.5],[1,0.5]];portConstraint=eastwest;whiteSpace=wrap;html=1;" parent="_MR5lmJ_xEQnUR5iK06d-10" vertex="1">
          <mxGeometry y="52" width="410" height="26" as="geometry" />
        </mxCell>
        <mxCell id="_MR5lmJ_xEQnUR5iK06d-12" value="&lt;div&gt;void decryptData(std::string&amp;amp;);&lt;/div&gt;" style="text;strokeColor=none;fillColor=none;align=left;verticalAlign=top;spacingLeft=4;spacingRight=4;overflow=hidden;rotatable=0;points=[[0,0.5],[1,0.5]];portConstraint=eastwest;whiteSpace=wrap;html=1;" parent="_MR5lmJ_xEQnUR5iK06d-10" vertex="1">
          <mxGeometry y="78" width="410" height="26" as="geometry" />
        </mxCell>
        <mxCell id="_MR5lmJ_xEQnUR5iK06d-13" value="void encryptData(std::string&amp;amp;);" style="text;strokeColor=none;fillColor=none;align=left;verticalAlign=top;spacingLeft=4;spacingRight=4;overflow=hidden;rotatable=0;points=[[0,0.5],[1,0.5]];portConstraint=eastwest;whiteSpace=wrap;html=1;" parent="_MR5lmJ_xEQnUR5iK06d-10" vertex="1">
          <mxGeometry y="104" width="410" height="26" as="geometry" />
        </mxCell>
        <mxCell id="_MR5lmJ_xEQnUR5iK06d-25" value="" style="line;strokeWidth=1;fillColor=none;align=left;verticalAlign=middle;spacingTop=-1;spacingLeft=3;spacingRight=3;rotatable=0;labelPosition=right;points=[];portConstraint=eastwest;strokeColor=inherit;" parent="_MR5lmJ_xEQnUR5iK06d-10" vertex="1">
          <mxGeometry y="130" width="410" height="8" as="geometry" />
        </mxCell>
        <mxCell id="5i-djBijcil1WzK-Jz-j-36" style="edgeStyle=orthogonalEdgeStyle;rounded=0;orthogonalLoop=1;jettySize=auto;html=1;" edge="1" parent="1" source="5i-djBijcil1WzK-Jz-j-21" target="5Nd1VUIgEl3wB4-zYDqk-95">
          <mxGeometry relative="1" as="geometry">
            <Array as="points">
              <mxPoint x="1630" y="-440" />
              <mxPoint x="1650" y="-440" />
            </Array>
          </mxGeometry>
        </mxCell>
        <mxCell id="5i-djBijcil1WzK-Jz-j-21" value="class UdpSocket" style="swimlane;fontStyle=1;align=center;verticalAlign=top;childLayout=stackLayout;horizontal=1;startSize=26;horizontalStack=0;resizeParent=1;resizeParentMax=0;resizeLast=0;collapsible=1;marginBottom=0;whiteSpace=wrap;html=1;fillColor=#d5e8d4;strokeColor=#82b366;" vertex="1" parent="1">
          <mxGeometry x="1290" y="-940" width="390" height="358" as="geometry" />
        </mxCell>
        <mxCell id="5i-djBijcil1WzK-Jz-j-28" value="private:" style="swimlane;fontStyle=1;align=center;verticalAlign=top;childLayout=stackLayout;horizontal=1;startSize=26;horizontalStack=0;resizeParent=1;resizeParentMax=0;resizeLast=0;collapsible=1;marginBottom=0;whiteSpace=wrap;html=1;fillColor=#dae8fc;strokeColor=#6c8ebf;" vertex="1" parent="5i-djBijcil1WzK-Jz-j-21">
          <mxGeometry y="26" width="390" height="138" as="geometry" />
        </mxCell>
        <mxCell id="5i-djBijcil1WzK-Jz-j-29" value="udp::socket socket;" style="text;strokeColor=none;fillColor=none;align=left;verticalAlign=top;spacingLeft=4;spacingRight=4;overflow=hidden;rotatable=0;points=[[0,0.5],[1,0.5]];portConstraint=eastwest;whiteSpace=wrap;html=1;" vertex="1" parent="5i-djBijcil1WzK-Jz-j-28">
          <mxGeometry y="26" width="390" height="26" as="geometry" />
        </mxCell>
        <mxCell id="5i-djBijcil1WzK-Jz-j-30" value="udp::endpoint senderEndpoint" style="text;strokeColor=none;fillColor=none;align=left;verticalAlign=top;spacingLeft=4;spacingRight=4;overflow=hidden;rotatable=0;points=[[0,0.5],[1,0.5]];portConstraint=eastwest;whiteSpace=wrap;html=1;" vertex="1" parent="5i-djBijcil1WzK-Jz-j-28">
          <mxGeometry y="52" width="390" height="26" as="geometry" />
        </mxCell>
        <mxCell id="5i-djBijcil1WzK-Jz-j-31" value="size_t receive_length" style="text;strokeColor=none;fillColor=none;align=left;verticalAlign=top;spacingLeft=4;spacingRight=4;overflow=hidden;rotatable=0;points=[[0,0.5],[1,0.5]];portConstraint=eastwest;whiteSpace=wrap;html=1;" vertex="1" parent="5i-djBijcil1WzK-Jz-j-28">
          <mxGeometry y="78" width="390" height="26" as="geometry" />
        </mxCell>
        <mxCell id="5i-djBijcil1WzK-Jz-j-32" value="char tempData[MC_RECEIVE_BUFFER]" style="text;strokeColor=none;fillColor=none;align=left;verticalAlign=top;spacingLeft=4;spacingRight=4;overflow=hidden;rotatable=0;points=[[0,0.5],[1,0.5]];portConstraint=eastwest;whiteSpace=wrap;html=1;" vertex="1" parent="5i-djBijcil1WzK-Jz-j-28">
          <mxGeometry y="104" width="390" height="26" as="geometry" />
        </mxCell>
        <mxCell id="5i-djBijcil1WzK-Jz-j-33" value="" style="line;strokeWidth=1;fillColor=none;align=left;verticalAlign=middle;spacingTop=-1;spacingLeft=3;spacingRight=3;rotatable=0;labelPosition=right;points=[];portConstraint=eastwest;strokeColor=inherit;" vertex="1" parent="5i-djBijcil1WzK-Jz-j-28">
          <mxGeometry y="130" width="390" height="8" as="geometry" />
        </mxCell>
        <mxCell id="5i-djBijcil1WzK-Jz-j-22" value="public:" style="swimlane;fontStyle=1;align=center;verticalAlign=top;childLayout=stackLayout;horizontal=1;startSize=26;horizontalStack=0;resizeParent=1;resizeParentMax=0;resizeLast=0;collapsible=1;marginBottom=0;whiteSpace=wrap;html=1;fillColor=#f8cecc;strokeColor=#b85450;" vertex="1" parent="5i-djBijcil1WzK-Jz-j-21">
          <mxGeometry y="164" width="390" height="194" as="geometry" />
        </mxCell>
        <mxCell id="5i-djBijcil1WzK-Jz-j-23" value="&lt;div&gt;UdpSocket(boost::asio::io_context&amp;amp; io_context, unsigned short port)&lt;/div&gt;&lt;div&gt;&amp;nbsp; &amp;nbsp; &amp;nbsp; &amp;nbsp; &amp;nbsp; : socket(io_context, udp::endpoint(udp::v4(), port))&lt;/div&gt;" style="text;strokeColor=none;fillColor=none;align=left;verticalAlign=top;spacingLeft=4;spacingRight=4;overflow=hidden;rotatable=0;points=[[0,0.5],[1,0.5]];portConstraint=eastwest;whiteSpace=wrap;html=1;" vertex="1" parent="5i-djBijcil1WzK-Jz-j-22">
          <mxGeometry y="26" width="390" height="44" as="geometry" />
        </mxCell>
        <mxCell id="5i-djBijcil1WzK-Jz-j-24" value="~UdpSocket();" style="text;strokeColor=none;fillColor=none;align=left;verticalAlign=top;spacingLeft=4;spacingRight=4;overflow=hidden;rotatable=0;points=[[0,0.5],[1,0.5]];portConstraint=eastwest;whiteSpace=wrap;html=1;" vertex="1" parent="5i-djBijcil1WzK-Jz-j-22">
          <mxGeometry y="70" width="390" height="26" as="geometry" />
        </mxCell>
        <mxCell id="5i-djBijcil1WzK-Jz-j-25" value="&lt;div&gt;void changePort(unsigned short newPort)&lt;/div&gt;" style="text;strokeColor=none;fillColor=none;align=left;verticalAlign=top;spacingLeft=4;spacingRight=4;overflow=hidden;rotatable=0;points=[[0,0.5],[1,0.5]];portConstraint=eastwest;whiteSpace=wrap;html=1;" vertex="1" parent="5i-djBijcil1WzK-Jz-j-22">
          <mxGeometry y="96" width="390" height="26" as="geometry" />
        </mxCell>
        <mxCell id="5i-djBijcil1WzK-Jz-j-35" value="&lt;div&gt;size_t receive(char* const data, udp::endpoint&amp;amp; senderAddress)&lt;/div&gt;" style="text;strokeColor=none;fillColor=none;align=left;verticalAlign=top;spacingLeft=4;spacingRight=4;overflow=hidden;rotatable=0;points=[[0,0.5],[1,0.5]];portConstraint=eastwest;whiteSpace=wrap;html=1;" vertex="1" parent="5i-djBijcil1WzK-Jz-j-22">
          <mxGeometry y="122" width="390" height="26" as="geometry" />
        </mxCell>
        <mxCell id="5i-djBijcil1WzK-Jz-j-26" value="void send(std::string data, boost::asio::ip::address receiverIp,&lt;br&gt;&lt;span style=&quot;white-space: pre;&quot;&gt;&#x9;&lt;/span&gt;&amp;nbsp;unsigned short receiverPort)" style="text;strokeColor=none;fillColor=none;align=left;verticalAlign=top;spacingLeft=4;spacingRight=4;overflow=hidden;rotatable=0;points=[[0,0.5],[1,0.5]];portConstraint=eastwest;whiteSpace=wrap;html=1;" vertex="1" parent="5i-djBijcil1WzK-Jz-j-22">
          <mxGeometry y="148" width="390" height="38" as="geometry" />
        </mxCell>
        <mxCell id="5i-djBijcil1WzK-Jz-j-27" value="" style="line;strokeWidth=1;fillColor=none;align=left;verticalAlign=middle;spacingTop=-1;spacingLeft=3;spacingRight=3;rotatable=0;labelPosition=right;points=[];portConstraint=eastwest;strokeColor=inherit;" vertex="1" parent="5i-djBijcil1WzK-Jz-j-22">
          <mxGeometry y="186" width="390" height="8" as="geometry" />
        </mxCell>
        <mxCell id="5i-djBijcil1WzK-Jz-j-173" style="edgeStyle=orthogonalEdgeStyle;rounded=0;orthogonalLoop=1;jettySize=auto;html=1;" edge="1" parent="1" source="5i-djBijcil1WzK-Jz-j-169" target="5i-djBijcil1WzK-Jz-j-171">
          <mxGeometry relative="1" as="geometry" />
        </mxCell>
        <mxCell id="5i-djBijcil1WzK-Jz-j-169" value="server-request-response-list.h //must duplicate as data inside main-server request response lists" style="swimlane;fontStyle=1;align=center;verticalAlign=middle;childLayout=stackLayout;horizontal=1;startSize=29;horizontalStack=0;resizeParent=1;resizeParentMax=0;resizeLast=0;collapsible=0;marginBottom=0;html=1;whiteSpace=wrap;" vertex="1" parent="1">
          <mxGeometry x="-710" y="-2170" width="570" height="850" as="geometry" />
        </mxCell>
        <mxCell id="5i-djBijcil1WzK-Jz-j-170" value="&lt;div&gt;&lt;div&gt;&lt;br&gt;&lt;/div&gt;&lt;div&gt;//= = = = = = = = = = = = = = = main client rquests = = = = = = = = = = = = = = =&lt;/div&gt;&lt;div&gt;#define MC_REQUEST_CONNECT 100&lt;/div&gt;&lt;div&gt;#define MC_REQUEST_DISCONNECT 101&lt;/div&gt;&lt;div&gt;#define MC_REQUEST_LOGIN 102&lt;/div&gt;&lt;div&gt;#define MC_REQUEST_REGISTER 103&lt;/div&gt;&lt;div&gt;#define MC_REQUEST_CREATE_LOBBY 104&lt;/div&gt;&lt;div&gt;#define MC_REQUEST_GET_LOBBY_LIST 105&lt;/div&gt;&lt;div&gt;#define MC_REQUEST_GET_LOBBY_INFO 106&lt;/div&gt;&lt;div&gt;#define MC_REQUEST_LATEST_VERSION 107&lt;/div&gt;&lt;div&gt;&lt;br&gt;&lt;/div&gt;&lt;div&gt;&lt;br&gt;&lt;/div&gt;&lt;div&gt;//= = = = = = = = = = = = = = = main server response success = = = = = = = = = = = = = = =&lt;/div&gt;&lt;div&gt;#define MS_RESPONSE_CONNECTION_ACCEPTED 200&lt;/div&gt;&lt;div&gt;#define MS_RESPONSE_DISCONNECTED 201&lt;/div&gt;&lt;div&gt;#define MS_RESPONSE_SUCCESS_LOGIN 202&lt;/div&gt;&lt;div&gt;#define MS_RESPONSE_SUCCESS_REGISTER 203&lt;/div&gt;&lt;div&gt;#define MS_RESPONSE_SUCCESS_LOBBY_CREATED 204&lt;/div&gt;&lt;div&gt;#define MS_RESPONSE_SUCCESS_GET_LOBBY_LIST 205&lt;/div&gt;&lt;div&gt;#define MS_RESPONSE_SUCCESS_GET_LOBBY_INFO 206&lt;/div&gt;&lt;div&gt;#define MS_RESPONSE_SUCCESS_LATEST_VERSION 207&lt;/div&gt;&lt;div&gt;&lt;br&gt;&lt;/div&gt;&lt;div&gt;&lt;br&gt;&lt;/div&gt;&lt;div&gt;//= = = = = = = = = = = = = = = main server response errors = = = = = = = = = = = = = = =&lt;/div&gt;&lt;div&gt;#define MS_ERROR_CONNECTION_EXISTS 400&lt;/div&gt;&lt;div&gt;// #define MS_ERROR_CONNECTION_REJECTED_USING_VPN 401&lt;/div&gt;&lt;div&gt;#define MS_ERROR_CONNECTION_REJECTED 402&lt;/div&gt;&lt;div&gt;#define MS_ERROR_CONNECTION_NOT_EXISTS 403&lt;/div&gt;&lt;div&gt;&lt;br&gt;&lt;/div&gt;&lt;div&gt;#define MS_ERROR_FAILED_TO_LOGIN_INCORRECT 404&lt;/div&gt;&lt;div&gt;#define MS_ERROR_FAILED_TO_LOGIN_NOT_EXISTS 405&lt;/div&gt;&lt;div&gt;#define MS_ERROR_FAILED_TO_LOGIN_BANNED 406&lt;/div&gt;&lt;div&gt;#define MS_ERROR_FAILED_TO_LOGIN_BAD_DATA_SYNTAX 407&lt;/div&gt;&lt;div&gt;&lt;br&gt;&lt;/div&gt;&lt;div&gt;#define MS_ERROR_FAILED_TO_REGISTER_USERNAME_EXISTS 408&lt;/div&gt;&lt;div&gt;#define MS_ERROR_FAILED_TO_REGISTER_EMIAL_EXISTS 409&lt;/div&gt;&lt;div&gt;#define MS_ERROR_FAILED_TO_REGISTER_EASY_PASSWORD 410&lt;/div&gt;&lt;div&gt;#define MS_ERROR_FAILED_TO_REGISTER_BAD_DATA_SYNTAX 411&lt;/div&gt;&lt;div&gt;&lt;br&gt;&lt;/div&gt;&lt;div&gt;#define MS_ERROR_FAILED_TO_LOBBY_CREATION_INVALID_IDENTITY 412&lt;/div&gt;&lt;div&gt;#define MS_ERROR_FAILED_TO_LOBBY_CREATION_CANT_OWN_TWO_LOBBY 413&lt;/div&gt;&lt;div&gt;#define MS_ERROR_FAILED_TO_LOBBY_CREATION_FORBIDDEN_FOR_YOU 414&lt;/div&gt;&lt;div&gt;#define MS_ERROR_FAILED_TO_LOBBY_CREATION_BAD_DATA_SYNTAX 415&lt;/div&gt;&lt;div&gt;&lt;br&gt;&lt;/div&gt;&lt;div&gt;#define MS_ERROR_FAILED_TO_GET_LOBBY_LIST_NO_LOBBY_AVAIABLE 416&lt;/div&gt;&lt;div&gt;#define MS_ERROR_FAILED_TO_GET_LOBBY_INFO_LOBBY_NOT_FOUND 417&lt;/div&gt;&lt;div&gt;#define MS_ERROR_FAILED_TO_GET_LOBBY_INFO_BAD_DATA_SYNTAX 418&lt;/div&gt;&lt;div&gt;&lt;br&gt;&lt;/div&gt;&lt;div&gt;//= = = = = = = = = = = = = = = main server internal errors = = = = = = = = = = = = = = =&lt;/div&gt;&lt;div&gt;#define MS_ERROR_FAILED_TO_INSERT_CLIENT_IDENTITY 500&lt;/div&gt;&lt;div&gt;#define MS_ERROR_FAILED_TO_REGISTER_CLIENT 501&lt;/div&gt;&lt;div&gt;#define MS_ERROR_FAILED_TO_CREATE_LOBBY 502&lt;/div&gt;&lt;div&gt;#define MS_ERROR_FAILED_TO_GET_LOBBY_LIST 503&lt;/div&gt;&lt;div&gt;#define MS_ERROR_FAILED_TO_GET_LOBBY_INFO 504&lt;/div&gt;&lt;div&gt;#define MS_ERROR_FAILED_TO_LOGIN_CLIENT 505&lt;/div&gt;&lt;/div&gt;&lt;div&gt;&lt;br&gt;&lt;/div&gt;" style="text;html=1;strokeColor=none;fillColor=none;align=left;verticalAlign=middle;spacingLeft=4;spacingRight=4;overflow=hidden;rotatable=0;points=[[0,0.5],[1,0.5]];portConstraint=eastwest;whiteSpace=wrap;" vertex="1" parent="5i-djBijcil1WzK-Jz-j-169">
          <mxGeometry y="29" width="570" height="821" as="geometry" />
        </mxCell>
        <mxCell id="5i-djBijcil1WzK-Jz-j-171" value="states.h &lt;br&gt;//to avoid include one by one states into each source file this file made and included inside each state source file`" style="swimlane;fontStyle=1;align=center;verticalAlign=middle;childLayout=stackLayout;horizontal=1;startSize=60;horizontalStack=0;resizeParent=1;resizeParentMax=0;resizeLast=0;collapsible=0;marginBottom=0;html=1;whiteSpace=wrap;" vertex="1" parent="1">
          <mxGeometry x="-720" y="-1230" width="570" height="351" as="geometry" />
        </mxCell>
        <mxCell id="5i-djBijcil1WzK-Jz-j-172" value="&lt;div&gt;&lt;div&gt;&lt;div&gt;#include &quot;../include/server-request-response-list.h&quot;&lt;/div&gt;&lt;div&gt;#include &amp;lt;iostream&amp;gt;&lt;/div&gt;&lt;div&gt;&lt;br&gt;&lt;/div&gt;&lt;div&gt;#include &quot;../include/states/stateReadServerList.h&quot;&lt;/div&gt;&lt;div&gt;#include &quot;../include/states/stateBindPickPort.h&quot;&lt;/div&gt;&lt;div&gt;#include &quot;../include/states/stateConnectingToServer.h&quot;&lt;/div&gt;&lt;div&gt;#include &quot;../include/states/stateWaitForResponse.h&quot;&lt;/div&gt;&lt;div&gt;#include &quot;../include/states/stateConnectedToTheServer.h&quot;&lt;/div&gt;&lt;div&gt;#include &quot;../include/states/stateRelogin.h&quot;&lt;/div&gt;&lt;div&gt;#include &quot;../include/states/stateLoginForm.h&quot;&lt;/div&gt;&lt;div&gt;#include &quot;../include/states/stateEnd.h&quot;&lt;/div&gt;&lt;div&gt;#include &quot;../include/states/stateRegisterForm.h&quot;&lt;/div&gt;&lt;div&gt;#include &quot;../include/states/stateWriteIdentityToLocal.h&quot;&lt;/div&gt;&lt;div&gt;#include &quot;../include/states/stateMainPage.h&quot;&lt;/div&gt;&lt;div&gt;#include &quot;../include/states/stateLogout.h&quot;&lt;/div&gt;&lt;div&gt;#include &quot;../include/states/stateCreateLobbyForm.h&quot;&lt;/div&gt;&lt;div&gt;#include &quot;../include/states/stateJoinLobby.h&quot;&lt;/div&gt;&lt;div&gt;#include &quot;../include/states/stateFailed.h&quot;&lt;/div&gt;&lt;div&gt;#include &quot;../include/states/stateShowLobbyDetails.h&quot;&lt;/div&gt;&lt;/div&gt;&lt;/div&gt;" style="text;html=1;strokeColor=none;fillColor=none;align=left;verticalAlign=middle;spacingLeft=4;spacingRight=4;overflow=hidden;rotatable=0;points=[[0,0.5],[1,0.5]];portConstraint=eastwest;whiteSpace=wrap;" vertex="1" parent="5i-djBijcil1WzK-Jz-j-171">
          <mxGeometry y="60" width="570" height="291" as="geometry" />
        </mxCell>
        <mxCell id="5i-djBijcil1WzK-Jz-j-176" value="states" style="swimlane;whiteSpace=wrap;html=1;fillColor=#008a00;fontColor=#ffffff;strokeColor=#005700;" vertex="1" parent="1">
          <mxGeometry x="-1630" y="-270" width="2490" height="1850" as="geometry">
            <mxRectangle x="-1630" y="-270" width="80" height="30" as="alternateBounds" />
          </mxGeometry>
        </mxCell>
        <mxCell id="_MR5lmJ_xEQnUR5iK06d-31" value="class StateReadServerList : public AppState" style="swimlane;fontStyle=1;align=center;verticalAlign=top;childLayout=stackLayout;horizontal=1;startSize=26;horizontalStack=0;resizeParent=1;resizeParentMax=0;resizeLast=0;collapsible=1;marginBottom=0;whiteSpace=wrap;html=1;fillColor=#d5e8d4;strokeColor=#82b366;" parent="5i-djBijcil1WzK-Jz-j-176" vertex="1">
          <mxGeometry x="1980" y="66" width="490" height="198" as="geometry" />
        </mxCell>
        <mxCell id="_MR5lmJ_xEQnUR5iK06d-107" value="private:" style="swimlane;fontStyle=1;align=center;verticalAlign=top;childLayout=stackLayout;horizontal=1;startSize=26;horizontalStack=0;resizeParent=1;resizeParentMax=0;resizeLast=0;collapsible=1;marginBottom=0;whiteSpace=wrap;html=1;fillColor=#dae8fc;strokeColor=#6c8ebf;" parent="_MR5lmJ_xEQnUR5iK06d-31" vertex="1">
          <mxGeometry y="26" width="490" height="86" as="geometry" />
        </mxCell>
        <mxCell id="_MR5lmJ_xEQnUR5iK06d-109" value="AnAddress getIpAndPort(const std::string&amp;amp; line, std::string separator, std::string endline)" style="text;strokeColor=none;fillColor=none;align=left;verticalAlign=top;spacingLeft=4;spacingRight=4;overflow=hidden;rotatable=0;points=[[0,0.5],[1,0.5]];portConstraint=eastwest;whiteSpace=wrap;html=1;" parent="_MR5lmJ_xEQnUR5iK06d-107" vertex="1">
          <mxGeometry y="26" width="490" height="26" as="geometry" />
        </mxCell>
        <mxCell id="TZRwEb9DX03iSrNKigbo-4" value="int findIndexOfChar(const std::string&amp;amp; theString, const char&amp;amp; charecterSearchingFor)" style="text;strokeColor=none;fillColor=none;align=left;verticalAlign=top;spacingLeft=4;spacingRight=4;overflow=hidden;rotatable=0;points=[[0,0.5],[1,0.5]];portConstraint=eastwest;whiteSpace=wrap;html=1;" parent="_MR5lmJ_xEQnUR5iK06d-107" vertex="1">
          <mxGeometry y="52" width="490" height="26" as="geometry" />
        </mxCell>
        <mxCell id="_MR5lmJ_xEQnUR5iK06d-123" value="" style="line;strokeWidth=1;fillColor=none;align=left;verticalAlign=middle;spacingTop=-1;spacingLeft=3;spacingRight=3;rotatable=0;labelPosition=right;points=[];portConstraint=eastwest;strokeColor=inherit;" parent="_MR5lmJ_xEQnUR5iK06d-107" vertex="1">
          <mxGeometry y="78" width="490" height="8" as="geometry" />
        </mxCell>
        <mxCell id="_MR5lmJ_xEQnUR5iK06d-95" value="public" style="swimlane;fontStyle=1;align=center;verticalAlign=top;childLayout=stackLayout;horizontal=1;startSize=26;horizontalStack=0;resizeParent=1;resizeParentMax=0;resizeLast=0;collapsible=1;marginBottom=0;whiteSpace=wrap;html=1;fillColor=#f8cecc;strokeColor=#b85450;" parent="_MR5lmJ_xEQnUR5iK06d-31" vertex="1">
          <mxGeometry y="112" width="490" height="86" as="geometry" />
        </mxCell>
        <mxCell id="_MR5lmJ_xEQnUR5iK06d-50" value="StateReadServerList()" style="text;strokeColor=none;fillColor=none;align=left;verticalAlign=top;spacingLeft=4;spacingRight=4;overflow=hidden;rotatable=0;points=[[0,0.5],[1,0.5]];portConstraint=eastwest;whiteSpace=wrap;html=1;" parent="_MR5lmJ_xEQnUR5iK06d-95" vertex="1">
          <mxGeometry y="26" width="490" height="26" as="geometry" />
        </mxCell>
        <mxCell id="_MR5lmJ_xEQnUR5iK06d-52" value="~StateReadServerList()" style="text;strokeColor=none;fillColor=none;align=left;verticalAlign=top;spacingLeft=4;spacingRight=4;overflow=hidden;rotatable=0;points=[[0,0.5],[1,0.5]];portConstraint=eastwest;whiteSpace=wrap;html=1;" parent="_MR5lmJ_xEQnUR5iK06d-95" vertex="1">
          <mxGeometry y="52" width="490" height="26" as="geometry" />
        </mxCell>
        <mxCell id="_MR5lmJ_xEQnUR5iK06d-99" value="" style="line;strokeWidth=1;fillColor=none;align=left;verticalAlign=middle;spacingTop=-1;spacingLeft=3;spacingRight=3;rotatable=0;labelPosition=right;points=[];portConstraint=eastwest;strokeColor=inherit;" parent="_MR5lmJ_xEQnUR5iK06d-95" vertex="1">
          <mxGeometry y="78" width="490" height="8" as="geometry" />
        </mxCell>
        <mxCell id="5i-djBijcil1WzK-Jz-j-104" value="class StateLogout : public AppState" style="swimlane;fontStyle=1;align=center;verticalAlign=top;childLayout=stackLayout;horizontal=1;startSize=26;horizontalStack=0;resizeParent=1;resizeParentMax=0;resizeLast=0;collapsible=1;marginBottom=0;whiteSpace=wrap;html=1;fillColor=#d5e8d4;strokeColor=#82b366;" vertex="1" parent="5i-djBijcil1WzK-Jz-j-176">
          <mxGeometry x="1440" y="84" width="490" height="146" as="geometry" />
        </mxCell>
        <mxCell id="5i-djBijcil1WzK-Jz-j-105" value="private:" style="swimlane;fontStyle=1;align=center;verticalAlign=top;childLayout=stackLayout;horizontal=1;startSize=26;horizontalStack=0;resizeParent=1;resizeParentMax=0;resizeLast=0;collapsible=1;marginBottom=0;whiteSpace=wrap;html=1;fillColor=#dae8fc;strokeColor=#6c8ebf;" vertex="1" parent="5i-djBijcil1WzK-Jz-j-104">
          <mxGeometry y="26" width="490" height="34" as="geometry" />
        </mxCell>
        <mxCell id="5i-djBijcil1WzK-Jz-j-108" value="" style="line;strokeWidth=1;fillColor=none;align=left;verticalAlign=middle;spacingTop=-1;spacingLeft=3;spacingRight=3;rotatable=0;labelPosition=right;points=[];portConstraint=eastwest;strokeColor=inherit;" vertex="1" parent="5i-djBijcil1WzK-Jz-j-105">
          <mxGeometry y="26" width="490" height="8" as="geometry" />
        </mxCell>
        <mxCell id="5i-djBijcil1WzK-Jz-j-109" value="public" style="swimlane;fontStyle=1;align=center;verticalAlign=top;childLayout=stackLayout;horizontal=1;startSize=26;horizontalStack=0;resizeParent=1;resizeParentMax=0;resizeLast=0;collapsible=1;marginBottom=0;whiteSpace=wrap;html=1;fillColor=#f8cecc;strokeColor=#b85450;" vertex="1" parent="5i-djBijcil1WzK-Jz-j-104">
          <mxGeometry y="60" width="490" height="86" as="geometry" />
        </mxCell>
        <mxCell id="5i-djBijcil1WzK-Jz-j-110" value="StateLogout()" style="text;strokeColor=none;fillColor=none;align=left;verticalAlign=top;spacingLeft=4;spacingRight=4;overflow=hidden;rotatable=0;points=[[0,0.5],[1,0.5]];portConstraint=eastwest;whiteSpace=wrap;html=1;" vertex="1" parent="5i-djBijcil1WzK-Jz-j-109">
          <mxGeometry y="26" width="490" height="26" as="geometry" />
        </mxCell>
        <mxCell id="5i-djBijcil1WzK-Jz-j-111" value="~StateLogout()" style="text;strokeColor=none;fillColor=none;align=left;verticalAlign=top;spacingLeft=4;spacingRight=4;overflow=hidden;rotatable=0;points=[[0,0.5],[1,0.5]];portConstraint=eastwest;whiteSpace=wrap;html=1;" vertex="1" parent="5i-djBijcil1WzK-Jz-j-109">
          <mxGeometry y="52" width="490" height="26" as="geometry" />
        </mxCell>
        <mxCell id="5i-djBijcil1WzK-Jz-j-112" value="" style="line;strokeWidth=1;fillColor=none;align=left;verticalAlign=middle;spacingTop=-1;spacingLeft=3;spacingRight=3;rotatable=0;labelPosition=right;points=[];portConstraint=eastwest;strokeColor=inherit;" vertex="1" parent="5i-djBijcil1WzK-Jz-j-109">
          <mxGeometry y="78" width="490" height="8" as="geometry" />
        </mxCell>
        <mxCell id="5Nd1VUIgEl3wB4-zYDqk-67" value="class StateLoginForm : public AppState" style="swimlane;fontStyle=1;align=center;verticalAlign=top;childLayout=stackLayout;horizontal=1;startSize=26;horizontalStack=0;resizeParent=1;resizeParentMax=0;resizeLast=0;collapsible=1;marginBottom=0;whiteSpace=wrap;html=1;fillColor=#d5e8d4;strokeColor=#82b366;" parent="5i-djBijcil1WzK-Jz-j-176" vertex="1">
          <mxGeometry x="2050" y="330" width="390" height="558" as="geometry" />
        </mxCell>
        <mxCell id="5Nd1VUIgEl3wB4-zYDqk-69" value="private:" style="swimlane;fontStyle=1;align=center;verticalAlign=top;childLayout=stackLayout;horizontal=1;startSize=26;horizontalStack=0;resizeParent=1;resizeParentMax=0;resizeLast=0;collapsible=1;marginBottom=0;whiteSpace=wrap;html=1;fillColor=#dae8fc;strokeColor=#6c8ebf;" parent="5Nd1VUIgEl3wB4-zYDqk-67" vertex="1">
          <mxGeometry y="26" width="390" height="398" as="geometry" />
        </mxCell>
        <mxCell id="TZRwEb9DX03iSrNKigbo-77" value="FluffyMultiplayer::LoginFormData form_data;" style="text;strokeColor=none;fillColor=none;align=left;verticalAlign=top;spacingLeft=4;spacingRight=4;overflow=hidden;rotatable=0;points=[[0,0.5],[1,0.5]];portConstraint=eastwest;whiteSpace=wrap;html=1;" parent="5Nd1VUIgEl3wB4-zYDqk-69" vertex="1">
          <mxGeometry y="26" width="390" height="26" as="geometry" />
        </mxCell>
        <mxCell id="5Nd1VUIgEl3wB4-zYDqk-120" value="std::array&amp;lt;std::string, 6&amp;gt; label_text" style="text;strokeColor=none;fillColor=none;align=left;verticalAlign=top;spacingLeft=4;spacingRight=4;overflow=hidden;rotatable=0;points=[[0,0.5],[1,0.5]];portConstraint=eastwest;whiteSpace=wrap;html=1;" parent="5Nd1VUIgEl3wB4-zYDqk-69" vertex="1">
          <mxGeometry y="52" width="390" height="26" as="geometry" />
        </mxCell>
        <mxCell id="5Nd1VUIgEl3wB4-zYDqk-131" value="std::array&amp;lt;std::Text, 10&amp;gt; labels" style="text;strokeColor=none;fillColor=none;align=left;verticalAlign=top;spacingLeft=4;spacingRight=4;overflow=hidden;rotatable=0;points=[[0,0.5],[1,0.5]];portConstraint=eastwest;whiteSpace=wrap;html=1;" parent="5Nd1VUIgEl3wB4-zYDqk-69" vertex="1">
          <mxGeometry y="78" width="390" height="26" as="geometry" />
        </mxCell>
        <mxCell id="5Nd1VUIgEl3wB4-zYDqk-133" value="sf::Texture button_texture" style="text;strokeColor=none;fillColor=none;align=left;verticalAlign=top;spacingLeft=4;spacingRight=4;overflow=hidden;rotatable=0;points=[[0,0.5],[1,0.5]];portConstraint=eastwest;whiteSpace=wrap;html=1;" parent="5Nd1VUIgEl3wB4-zYDqk-69" vertex="1">
          <mxGeometry y="104" width="390" height="26" as="geometry" />
        </mxCell>
        <mxCell id="5Nd1VUIgEl3wB4-zYDqk-135" value="std::array&amp;lt;sf::Sprite, 2&amp;gt; text_input_sprite" style="text;strokeColor=none;fillColor=none;align=left;verticalAlign=top;spacingLeft=4;spacingRight=4;overflow=hidden;rotatable=0;points=[[0,0.5],[1,0.5]];portConstraint=eastwest;whiteSpace=wrap;html=1;" parent="5Nd1VUIgEl3wB4-zYDqk-69" vertex="1">
          <mxGeometry y="130" width="390" height="26" as="geometry" />
        </mxCell>
        <mxCell id="5Nd1VUIgEl3wB4-zYDqk-134" value="std::array&amp;lt;sf::Sprite, 2&amp;gt; button_sprites" style="text;strokeColor=none;fillColor=none;align=left;verticalAlign=top;spacingLeft=4;spacingRight=4;overflow=hidden;rotatable=0;points=[[0,0.5],[1,0.5]];portConstraint=eastwest;whiteSpace=wrap;html=1;" parent="5Nd1VUIgEl3wB4-zYDqk-69" vertex="1">
          <mxGeometry y="156" width="390" height="26" as="geometry" />
        </mxCell>
        <mxCell id="5Nd1VUIgEl3wB4-zYDqk-132" value="sf::Texture text_input_texture" style="text;strokeColor=none;fillColor=none;align=left;verticalAlign=top;spacingLeft=4;spacingRight=4;overflow=hidden;rotatable=0;points=[[0,0.5],[1,0.5]];portConstraint=eastwest;whiteSpace=wrap;html=1;" parent="5Nd1VUIgEl3wB4-zYDqk-69" vertex="1">
          <mxGeometry y="182" width="390" height="26" as="geometry" />
        </mxCell>
        <mxCell id="5Nd1VUIgEl3wB4-zYDqk-119" value="sf::Texture login_texture" style="text;strokeColor=none;fillColor=none;align=left;verticalAlign=top;spacingLeft=4;spacingRight=4;overflow=hidden;rotatable=0;points=[[0,0.5],[1,0.5]];portConstraint=eastwest;whiteSpace=wrap;html=1;" parent="5Nd1VUIgEl3wB4-zYDqk-69" vertex="1">
          <mxGeometry y="208" width="390" height="26" as="geometry" />
        </mxCell>
        <mxCell id="5Nd1VUIgEl3wB4-zYDqk-121" value="std::array&amp;lt;sf::Texture, 2&amp;gt; saveLoginCheckBox_textures" style="text;strokeColor=none;fillColor=none;align=left;verticalAlign=top;spacingLeft=4;spacingRight=4;overflow=hidden;rotatable=0;points=[[0,0.5],[1,0.5]];portConstraint=eastwest;whiteSpace=wrap;html=1;" parent="5Nd1VUIgEl3wB4-zYDqk-69" vertex="1">
          <mxGeometry y="234" width="390" height="26" as="geometry" />
        </mxCell>
        <mxCell id="5Nd1VUIgEl3wB4-zYDqk-123" value="std::array&amp;lt;sf::Texture, 2&amp;gt; showPassword_texutres" style="text;strokeColor=none;fillColor=none;align=left;verticalAlign=top;spacingLeft=4;spacingRight=4;overflow=hidden;rotatable=0;points=[[0,0.5],[1,0.5]];portConstraint=eastwest;whiteSpace=wrap;html=1;" parent="5Nd1VUIgEl3wB4-zYDqk-69" vertex="1">
          <mxGeometry y="260" width="390" height="26" as="geometry" />
        </mxCell>
        <mxCell id="5Nd1VUIgEl3wB4-zYDqk-136" value="sf::Sprite showPassword_sprite" style="text;strokeColor=none;fillColor=none;align=left;verticalAlign=top;spacingLeft=4;spacingRight=4;overflow=hidden;rotatable=0;points=[[0,0.5],[1,0.5]];portConstraint=eastwest;whiteSpace=wrap;html=1;" parent="5Nd1VUIgEl3wB4-zYDqk-69" vertex="1">
          <mxGeometry y="286" width="390" height="26" as="geometry" />
        </mxCell>
        <mxCell id="5Nd1VUIgEl3wB4-zYDqk-124" value="sf::Sprite saveLoginCheckBox_sprite" style="text;strokeColor=none;fillColor=none;align=left;verticalAlign=top;spacingLeft=4;spacingRight=4;overflow=hidden;rotatable=0;points=[[0,0.5],[1,0.5]];portConstraint=eastwest;whiteSpace=wrap;html=1;" parent="5Nd1VUIgEl3wB4-zYDqk-69" vertex="1">
          <mxGeometry y="312" width="390" height="26" as="geometry" />
        </mxCell>
        <mxCell id="5Nd1VUIgEl3wB4-zYDqk-122" value="std::array&amp;lt;sf::FloatRect, 6&amp;gt; form_boundaries" style="text;strokeColor=none;fillColor=none;align=left;verticalAlign=top;spacingLeft=4;spacingRight=4;overflow=hidden;rotatable=0;points=[[0,0.5],[1,0.5]];portConstraint=eastwest;whiteSpace=wrap;html=1;" parent="5Nd1VUIgEl3wB4-zYDqk-69" vertex="1">
          <mxGeometry y="338" width="390" height="26" as="geometry" />
        </mxCell>
        <mxCell id="5i-djBijcil1WzK-Jz-j-102" value="void initFormLabels();" style="text;strokeColor=none;fillColor=none;align=left;verticalAlign=top;spacingLeft=4;spacingRight=4;overflow=hidden;rotatable=0;points=[[0,0.5],[1,0.5]];portConstraint=eastwest;whiteSpace=wrap;html=1;" vertex="1" parent="5Nd1VUIgEl3wB4-zYDqk-69">
          <mxGeometry y="364" width="390" height="26" as="geometry" />
        </mxCell>
        <mxCell id="5Nd1VUIgEl3wB4-zYDqk-73" value="" style="line;strokeWidth=1;fillColor=none;align=left;verticalAlign=middle;spacingTop=-1;spacingLeft=3;spacingRight=3;rotatable=0;labelPosition=right;points=[];portConstraint=eastwest;strokeColor=inherit;" parent="5Nd1VUIgEl3wB4-zYDqk-69" vertex="1">
          <mxGeometry y="390" width="390" height="8" as="geometry" />
        </mxCell>
        <mxCell id="5Nd1VUIgEl3wB4-zYDqk-74" value="public" style="swimlane;fontStyle=1;align=center;verticalAlign=top;childLayout=stackLayout;horizontal=1;startSize=26;horizontalStack=0;resizeParent=1;resizeParentMax=0;resizeLast=0;collapsible=1;marginBottom=0;whiteSpace=wrap;html=1;fillColor=#f8cecc;strokeColor=#b85450;" parent="5Nd1VUIgEl3wB4-zYDqk-67" vertex="1">
          <mxGeometry y="424" width="390" height="134" as="geometry" />
        </mxCell>
        <mxCell id="_MR5lmJ_xEQnUR5iK06d-85" value="&lt;div&gt;StateLoginForm();&lt;/div&gt;" style="text;strokeColor=none;fillColor=none;align=left;verticalAlign=top;spacingLeft=4;spacingRight=4;overflow=hidden;rotatable=0;points=[[0,0.5],[1,0.5]];portConstraint=eastwest;whiteSpace=wrap;html=1;" parent="5Nd1VUIgEl3wB4-zYDqk-74" vertex="1">
          <mxGeometry y="26" width="390" height="26" as="geometry" />
        </mxCell>
        <mxCell id="5i-djBijcil1WzK-Jz-j-103" value="&lt;div&gt;StateLoginForm(FluffyMultiplayer::LoginFormData); //if form failed re-fills form automatically with this arg&lt;/div&gt;" style="text;strokeColor=none;fillColor=none;align=left;verticalAlign=top;spacingLeft=4;spacingRight=4;overflow=hidden;rotatable=0;points=[[0,0.5],[1,0.5]];portConstraint=eastwest;whiteSpace=wrap;html=1;" vertex="1" parent="5Nd1VUIgEl3wB4-zYDqk-74">
          <mxGeometry y="52" width="390" height="48" as="geometry" />
        </mxCell>
        <mxCell id="_MR5lmJ_xEQnUR5iK06d-87" value="~StateLoginForm()" style="text;strokeColor=none;fillColor=none;align=left;verticalAlign=top;spacingLeft=4;spacingRight=4;overflow=hidden;rotatable=0;points=[[0,0.5],[1,0.5]];portConstraint=eastwest;whiteSpace=wrap;html=1;" parent="5Nd1VUIgEl3wB4-zYDqk-74" vertex="1">
          <mxGeometry y="100" width="390" height="26" as="geometry" />
        </mxCell>
        <mxCell id="5Nd1VUIgEl3wB4-zYDqk-79" value="" style="line;strokeWidth=1;fillColor=none;align=left;verticalAlign=middle;spacingTop=-1;spacingLeft=3;spacingRight=3;rotatable=0;labelPosition=right;points=[];portConstraint=eastwest;strokeColor=inherit;" parent="5Nd1VUIgEl3wB4-zYDqk-74" vertex="1">
          <mxGeometry y="126" width="390" height="8" as="geometry" />
        </mxCell>
        <mxCell id="5i-djBijcil1WzK-Jz-j-113" value="class StateMainPage : public AppState" style="swimlane;fontStyle=1;align=center;verticalAlign=top;childLayout=stackLayout;horizontal=1;startSize=26;horizontalStack=0;resizeParent=1;resizeParentMax=0;resizeLast=0;collapsible=1;marginBottom=0;whiteSpace=wrap;html=1;fillColor=#d5e8d4;strokeColor=#82b366;" vertex="1" parent="5i-djBijcil1WzK-Jz-j-176">
          <mxGeometry x="1490" y="320" width="490" height="614" as="geometry" />
        </mxCell>
        <mxCell id="5i-djBijcil1WzK-Jz-j-114" value="private:" style="swimlane;fontStyle=1;align=center;verticalAlign=top;childLayout=stackLayout;horizontal=1;startSize=26;horizontalStack=0;resizeParent=1;resizeParentMax=0;resizeLast=0;collapsible=1;marginBottom=0;whiteSpace=wrap;html=1;fillColor=#dae8fc;strokeColor=#6c8ebf;" vertex="1" parent="5i-djBijcil1WzK-Jz-j-113">
          <mxGeometry y="26" width="490" height="502" as="geometry" />
        </mxCell>
        <mxCell id="5i-djBijcil1WzK-Jz-j-125" value="std::string enteredLobbyId;" style="text;strokeColor=none;fillColor=none;align=left;verticalAlign=top;spacingLeft=4;spacingRight=4;overflow=hidden;rotatable=0;points=[[0,0.5],[1,0.5]];portConstraint=eastwest;whiteSpace=wrap;html=1;" vertex="1" parent="5i-djBijcil1WzK-Jz-j-114">
          <mxGeometry y="26" width="490" height="26" as="geometry" />
        </mxCell>
        <mxCell id="5i-djBijcil1WzK-Jz-j-124" value="std::vector&amp;lt;FluffyMultiplayer::LobbyData&amp;gt; lobbyList;" style="text;strokeColor=none;fillColor=none;align=left;verticalAlign=top;spacingLeft=4;spacingRight=4;overflow=hidden;rotatable=0;points=[[0,0.5],[1,0.5]];portConstraint=eastwest;whiteSpace=wrap;html=1;" vertex="1" parent="5i-djBijcil1WzK-Jz-j-114">
          <mxGeometry y="52" width="490" height="26" as="geometry" />
        </mxCell>
        <mxCell id="5i-djBijcil1WzK-Jz-j-123" value="FluffyMultiplayer::LobbyData selectedLobby;" style="text;strokeColor=none;fillColor=none;align=left;verticalAlign=top;spacingLeft=4;spacingRight=4;overflow=hidden;rotatable=0;points=[[0,0.5],[1,0.5]];portConstraint=eastwest;whiteSpace=wrap;html=1;" vertex="1" parent="5i-djBijcil1WzK-Jz-j-114">
          <mxGeometry y="78" width="490" height="26" as="geometry" />
        </mxCell>
        <mxCell id="5i-djBijcil1WzK-Jz-j-122" value="bool isPedding; //something like mutex to stop client do multiple request/action" style="text;strokeColor=none;fillColor=none;align=left;verticalAlign=top;spacingLeft=4;spacingRight=4;overflow=hidden;rotatable=0;points=[[0,0.5],[1,0.5]];portConstraint=eastwest;whiteSpace=wrap;html=1;" vertex="1" parent="5i-djBijcil1WzK-Jz-j-114">
          <mxGeometry y="104" width="490" height="26" as="geometry" />
        </mxCell>
        <mxCell id="5i-djBijcil1WzK-Jz-j-127" value="sf::Text stateIsBusyText; //to display" style="text;strokeColor=none;fillColor=none;align=left;verticalAlign=top;spacingLeft=4;spacingRight=4;overflow=hidden;rotatable=0;points=[[0,0.5],[1,0.5]];portConstraint=eastwest;whiteSpace=wrap;html=1;" vertex="1" parent="5i-djBijcil1WzK-Jz-j-114">
          <mxGeometry y="130" width="490" height="26" as="geometry" />
        </mxCell>
        <mxCell id="5i-djBijcil1WzK-Jz-j-128" value="bool successToRefreshLobbyList;" style="text;strokeColor=none;fillColor=none;align=left;verticalAlign=top;spacingLeft=4;spacingRight=4;overflow=hidden;rotatable=0;points=[[0,0.5],[1,0.5]];portConstraint=eastwest;whiteSpace=wrap;html=1;" vertex="1" parent="5i-djBijcil1WzK-Jz-j-114">
          <mxGeometry y="156" width="490" height="26" as="geometry" />
        </mxCell>
        <mxCell id="5i-djBijcil1WzK-Jz-j-136" value="std::string receivedData;" style="text;strokeColor=none;fillColor=none;align=left;verticalAlign=top;spacingLeft=4;spacingRight=4;overflow=hidden;rotatable=0;points=[[0,0.5],[1,0.5]];portConstraint=eastwest;whiteSpace=wrap;html=1;" vertex="1" parent="5i-djBijcil1WzK-Jz-j-114">
          <mxGeometry y="182" width="490" height="26" as="geometry" />
        </mxCell>
        <mxCell id="5i-djBijcil1WzK-Jz-j-135" value="int refreshLobbyTimeoutCounter;" style="text;strokeColor=none;fillColor=none;align=left;verticalAlign=top;spacingLeft=4;spacingRight=4;overflow=hidden;rotatable=0;points=[[0,0.5],[1,0.5]];portConstraint=eastwest;whiteSpace=wrap;html=1;" vertex="1" parent="5i-djBijcil1WzK-Jz-j-114">
          <mxGeometry y="208" width="490" height="26" as="geometry" />
        </mxCell>
        <mxCell id="5i-djBijcil1WzK-Jz-j-134" value="int refreshLobbyResultCode;" style="text;strokeColor=none;fillColor=none;align=left;verticalAlign=top;spacingLeft=4;spacingRight=4;overflow=hidden;rotatable=0;points=[[0,0.5],[1,0.5]];portConstraint=eastwest;whiteSpace=wrap;html=1;" vertex="1" parent="5i-djBijcil1WzK-Jz-j-114">
          <mxGeometry y="234" width="490" height="26" as="geometry" />
        </mxCell>
        <mxCell id="5i-djBijcil1WzK-Jz-j-133" value="int refreshLobbyListCounter;" style="text;strokeColor=none;fillColor=none;align=left;verticalAlign=top;spacingLeft=4;spacingRight=4;overflow=hidden;rotatable=0;points=[[0,0.5],[1,0.5]];portConstraint=eastwest;whiteSpace=wrap;html=1;" vertex="1" parent="5i-djBijcil1WzK-Jz-j-114">
          <mxGeometry y="260" width="490" height="26" as="geometry" />
        </mxCell>
        <mxCell id="5i-djBijcil1WzK-Jz-j-129" value="int checkResponseCode(const std::string&amp;amp; _data);" style="text;strokeColor=none;fillColor=none;align=left;verticalAlign=top;spacingLeft=4;spacingRight=4;overflow=hidden;rotatable=0;points=[[0,0.5],[1,0.5]];portConstraint=eastwest;whiteSpace=wrap;html=1;" vertex="1" parent="5i-djBijcil1WzK-Jz-j-114">
          <mxGeometry y="286" width="490" height="26" as="geometry" />
        </mxCell>
        <mxCell id="5i-djBijcil1WzK-Jz-j-130" value="FluffyMultiplayer::AnAddress convertToAnAddress(const std::string&amp;amp;);" style="text;strokeColor=none;fillColor=none;align=left;verticalAlign=top;spacingLeft=4;spacingRight=4;overflow=hidden;rotatable=0;points=[[0,0.5],[1,0.5]];portConstraint=eastwest;whiteSpace=wrap;html=1;" vertex="1" parent="5i-djBijcil1WzK-Jz-j-114">
          <mxGeometry y="312" width="490" height="26" as="geometry" />
        </mxCell>
        <mxCell id="5i-djBijcil1WzK-Jz-j-132" value="bool convertToBool(const std::string&amp;amp;);" style="text;strokeColor=none;fillColor=none;align=left;verticalAlign=top;spacingLeft=4;spacingRight=4;overflow=hidden;rotatable=0;points=[[0,0.5],[1,0.5]];portConstraint=eastwest;whiteSpace=wrap;html=1;" vertex="1" parent="5i-djBijcil1WzK-Jz-j-114">
          <mxGeometry y="338" width="490" height="26" as="geometry" />
        </mxCell>
        <mxCell id="5i-djBijcil1WzK-Jz-j-131" value="int convertToInt(const std::string&amp;amp;);" style="text;strokeColor=none;fillColor=none;align=left;verticalAlign=top;spacingLeft=4;spacingRight=4;overflow=hidden;rotatable=0;points=[[0,0.5],[1,0.5]];portConstraint=eastwest;whiteSpace=wrap;html=1;" vertex="1" parent="5i-djBijcil1WzK-Jz-j-114">
          <mxGeometry y="364" width="490" height="26" as="geometry" />
        </mxCell>
        <mxCell id="5i-djBijcil1WzK-Jz-j-126" value="FluffyMultiplayer::LobbyData convertStringToLobby(const std::array&amp;lt;std::string,11&amp;gt;&amp;amp;);" style="text;strokeColor=none;fillColor=none;align=left;verticalAlign=top;spacingLeft=4;spacingRight=4;overflow=hidden;rotatable=0;points=[[0,0.5],[1,0.5]];portConstraint=eastwest;whiteSpace=wrap;html=1;" vertex="1" parent="5i-djBijcil1WzK-Jz-j-114">
          <mxGeometry y="390" width="490" height="26" as="geometry" />
        </mxCell>
        <mxCell id="5i-djBijcil1WzK-Jz-j-138" value="int countLobbies(const std::string&amp;amp;);" style="text;strokeColor=none;fillColor=none;align=left;verticalAlign=top;spacingLeft=4;spacingRight=4;overflow=hidden;rotatable=0;points=[[0,0.5],[1,0.5]];portConstraint=eastwest;whiteSpace=wrap;html=1;" vertex="1" parent="5i-djBijcil1WzK-Jz-j-114">
          <mxGeometry y="416" width="490" height="26" as="geometry" />
        </mxCell>
        <mxCell id="5i-djBijcil1WzK-Jz-j-137" value="int findIndexOfDelimiter(const std::string&amp;amp;, std::string);" style="text;strokeColor=none;fillColor=none;align=left;verticalAlign=top;spacingLeft=4;spacingRight=4;overflow=hidden;rotatable=0;points=[[0,0.5],[1,0.5]];portConstraint=eastwest;whiteSpace=wrap;html=1;" vertex="1" parent="5i-djBijcil1WzK-Jz-j-114">
          <mxGeometry y="442" width="490" height="26" as="geometry" />
        </mxCell>
        <mxCell id="5i-djBijcil1WzK-Jz-j-120" value="bool updateLobbyList();" style="text;strokeColor=none;fillColor=none;align=left;verticalAlign=top;spacingLeft=4;spacingRight=4;overflow=hidden;rotatable=0;points=[[0,0.5],[1,0.5]];portConstraint=eastwest;whiteSpace=wrap;html=1;" vertex="1" parent="5i-djBijcil1WzK-Jz-j-114">
          <mxGeometry y="468" width="490" height="26" as="geometry" />
        </mxCell>
        <mxCell id="5i-djBijcil1WzK-Jz-j-115" value="" style="line;strokeWidth=1;fillColor=none;align=left;verticalAlign=middle;spacingTop=-1;spacingLeft=3;spacingRight=3;rotatable=0;labelPosition=right;points=[];portConstraint=eastwest;strokeColor=inherit;" vertex="1" parent="5i-djBijcil1WzK-Jz-j-114">
          <mxGeometry y="494" width="490" height="8" as="geometry" />
        </mxCell>
        <mxCell id="5i-djBijcil1WzK-Jz-j-116" value="public" style="swimlane;fontStyle=1;align=center;verticalAlign=top;childLayout=stackLayout;horizontal=1;startSize=26;horizontalStack=0;resizeParent=1;resizeParentMax=0;resizeLast=0;collapsible=1;marginBottom=0;whiteSpace=wrap;html=1;fillColor=#f8cecc;strokeColor=#b85450;" vertex="1" parent="5i-djBijcil1WzK-Jz-j-113">
          <mxGeometry y="528" width="490" height="86" as="geometry" />
        </mxCell>
        <mxCell id="5i-djBijcil1WzK-Jz-j-117" value="StateMainPage()" style="text;strokeColor=none;fillColor=none;align=left;verticalAlign=top;spacingLeft=4;spacingRight=4;overflow=hidden;rotatable=0;points=[[0,0.5],[1,0.5]];portConstraint=eastwest;whiteSpace=wrap;html=1;" vertex="1" parent="5i-djBijcil1WzK-Jz-j-116">
          <mxGeometry y="26" width="490" height="26" as="geometry" />
        </mxCell>
        <mxCell id="5i-djBijcil1WzK-Jz-j-118" value="~StateMainPage()" style="text;strokeColor=none;fillColor=none;align=left;verticalAlign=top;spacingLeft=4;spacingRight=4;overflow=hidden;rotatable=0;points=[[0,0.5],[1,0.5]];portConstraint=eastwest;whiteSpace=wrap;html=1;" vertex="1" parent="5i-djBijcil1WzK-Jz-j-116">
          <mxGeometry y="52" width="490" height="26" as="geometry" />
        </mxCell>
        <mxCell id="5i-djBijcil1WzK-Jz-j-119" value="" style="line;strokeWidth=1;fillColor=none;align=left;verticalAlign=middle;spacingTop=-1;spacingLeft=3;spacingRight=3;rotatable=0;labelPosition=right;points=[];portConstraint=eastwest;strokeColor=inherit;" vertex="1" parent="5i-djBijcil1WzK-Jz-j-116">
          <mxGeometry y="78" width="490" height="8" as="geometry" />
        </mxCell>
        <mxCell id="TZRwEb9DX03iSrNKigbo-67" value="class StateWriteIdentityToLocal : public AppState" style="swimlane;fontStyle=1;align=center;verticalAlign=top;childLayout=stackLayout;horizontal=1;startSize=26;horizontalStack=0;resizeParent=1;resizeParentMax=0;resizeLast=0;collapsible=1;marginBottom=0;whiteSpace=wrap;html=1;fillColor=#d5e8d4;strokeColor=#82b366;" parent="5i-djBijcil1WzK-Jz-j-176" vertex="1">
          <mxGeometry x="1860" y="1030" width="600" height="146" as="geometry" />
        </mxCell>
        <mxCell id="TZRwEb9DX03iSrNKigbo-68" value="private:" style="swimlane;fontStyle=1;align=center;verticalAlign=top;childLayout=stackLayout;horizontal=1;startSize=26;horizontalStack=0;resizeParent=1;resizeParentMax=0;resizeLast=0;collapsible=1;marginBottom=0;whiteSpace=wrap;html=1;fillColor=#dae8fc;strokeColor=#6c8ebf;" parent="TZRwEb9DX03iSrNKigbo-67" vertex="1">
          <mxGeometry y="26" width="600" height="34" as="geometry" />
        </mxCell>
        <mxCell id="TZRwEb9DX03iSrNKigbo-72" value="" style="line;strokeWidth=1;fillColor=none;align=left;verticalAlign=middle;spacingTop=-1;spacingLeft=3;spacingRight=3;rotatable=0;labelPosition=right;points=[];portConstraint=eastwest;strokeColor=inherit;" parent="TZRwEb9DX03iSrNKigbo-68" vertex="1">
          <mxGeometry y="26" width="600" height="8" as="geometry" />
        </mxCell>
        <mxCell id="TZRwEb9DX03iSrNKigbo-73" value="public" style="swimlane;fontStyle=1;align=center;verticalAlign=top;childLayout=stackLayout;horizontal=1;startSize=26;horizontalStack=0;resizeParent=1;resizeParentMax=0;resizeLast=0;collapsible=1;marginBottom=0;whiteSpace=wrap;html=1;fillColor=#f8cecc;strokeColor=#b85450;" parent="TZRwEb9DX03iSrNKigbo-67" vertex="1">
          <mxGeometry y="60" width="600" height="86" as="geometry" />
        </mxCell>
        <mxCell id="TZRwEb9DX03iSrNKigbo-74" value="StateWriteIdentityToLocal()" style="text;strokeColor=none;fillColor=none;align=left;verticalAlign=top;spacingLeft=4;spacingRight=4;overflow=hidden;rotatable=0;points=[[0,0.5],[1,0.5]];portConstraint=eastwest;whiteSpace=wrap;html=1;" parent="TZRwEb9DX03iSrNKigbo-73" vertex="1">
          <mxGeometry y="26" width="600" height="26" as="geometry" />
        </mxCell>
        <mxCell id="TZRwEb9DX03iSrNKigbo-75" value="~StateWriteIdentityToLocal()" style="text;strokeColor=none;fillColor=none;align=left;verticalAlign=top;spacingLeft=4;spacingRight=4;overflow=hidden;rotatable=0;points=[[0,0.5],[1,0.5]];portConstraint=eastwest;whiteSpace=wrap;html=1;" parent="TZRwEb9DX03iSrNKigbo-73" vertex="1">
          <mxGeometry y="52" width="600" height="26" as="geometry" />
        </mxCell>
        <mxCell id="TZRwEb9DX03iSrNKigbo-76" value="" style="line;strokeWidth=1;fillColor=none;align=left;verticalAlign=middle;spacingTop=-1;spacingLeft=3;spacingRight=3;rotatable=0;labelPosition=right;points=[];portConstraint=eastwest;strokeColor=inherit;" parent="TZRwEb9DX03iSrNKigbo-73" vertex="1">
          <mxGeometry y="78" width="600" height="8" as="geometry" />
        </mxCell>
        <mxCell id="TZRwEb9DX03iSrNKigbo-57" value="class StateRelogin : public AppState" style="swimlane;fontStyle=1;align=center;verticalAlign=top;childLayout=stackLayout;horizontal=1;startSize=26;horizontalStack=0;resizeParent=1;resizeParentMax=0;resizeLast=0;collapsible=1;marginBottom=0;whiteSpace=wrap;html=1;fillColor=#d5e8d4;strokeColor=#82b366;" parent="5i-djBijcil1WzK-Jz-j-176" vertex="1">
          <mxGeometry x="1840" y="1270" width="600" height="224" as="geometry" />
        </mxCell>
        <mxCell id="TZRwEb9DX03iSrNKigbo-58" value="private:" style="swimlane;fontStyle=1;align=center;verticalAlign=top;childLayout=stackLayout;horizontal=1;startSize=26;horizontalStack=0;resizeParent=1;resizeParentMax=0;resizeLast=0;collapsible=1;marginBottom=0;whiteSpace=wrap;html=1;fillColor=#dae8fc;strokeColor=#6c8ebf;" parent="TZRwEb9DX03iSrNKigbo-57" vertex="1">
          <mxGeometry y="26" width="600" height="112" as="geometry" />
        </mxCell>
        <mxCell id="TZRwEb9DX03iSrNKigbo-59" value="std::string req" style="text;strokeColor=none;fillColor=none;align=left;verticalAlign=top;spacingLeft=4;spacingRight=4;overflow=hidden;rotatable=0;points=[[0,0.5],[1,0.5]];portConstraint=eastwest;whiteSpace=wrap;html=1;" parent="TZRwEb9DX03iSrNKigbo-58" vertex="1">
          <mxGeometry y="26" width="600" height="26" as="geometry" />
        </mxCell>
        <mxCell id="TZRwEb9DX03iSrNKigbo-66" value="int findIndexOfValue(const std::string&amp;amp;, std::string)" style="text;strokeColor=none;fillColor=none;align=left;verticalAlign=top;spacingLeft=4;spacingRight=4;overflow=hidden;rotatable=0;points=[[0,0.5],[1,0.5]];portConstraint=eastwest;whiteSpace=wrap;html=1;" parent="TZRwEb9DX03iSrNKigbo-58" vertex="1">
          <mxGeometry y="52" width="600" height="26" as="geometry" />
        </mxCell>
        <mxCell id="TZRwEb9DX03iSrNKigbo-65" value="bool searchForIdentity(std::string&amp;amp;, const std::string&amp;amp;,std::string, std::string,std::string);" style="text;strokeColor=none;fillColor=none;align=left;verticalAlign=top;spacingLeft=4;spacingRight=4;overflow=hidden;rotatable=0;points=[[0,0.5],[1,0.5]];portConstraint=eastwest;whiteSpace=wrap;html=1;" parent="TZRwEb9DX03iSrNKigbo-58" vertex="1">
          <mxGeometry y="78" width="600" height="26" as="geometry" />
        </mxCell>
        <mxCell id="TZRwEb9DX03iSrNKigbo-60" value="" style="line;strokeWidth=1;fillColor=none;align=left;verticalAlign=middle;spacingTop=-1;spacingLeft=3;spacingRight=3;rotatable=0;labelPosition=right;points=[];portConstraint=eastwest;strokeColor=inherit;" parent="TZRwEb9DX03iSrNKigbo-58" vertex="1">
          <mxGeometry y="104" width="600" height="8" as="geometry" />
        </mxCell>
        <mxCell id="TZRwEb9DX03iSrNKigbo-61" value="public" style="swimlane;fontStyle=1;align=center;verticalAlign=top;childLayout=stackLayout;horizontal=1;startSize=26;horizontalStack=0;resizeParent=1;resizeParentMax=0;resizeLast=0;collapsible=1;marginBottom=0;whiteSpace=wrap;html=1;fillColor=#f8cecc;strokeColor=#b85450;" parent="TZRwEb9DX03iSrNKigbo-57" vertex="1">
          <mxGeometry y="138" width="600" height="86" as="geometry" />
        </mxCell>
        <mxCell id="TZRwEb9DX03iSrNKigbo-62" value="StateRelogin()" style="text;strokeColor=none;fillColor=none;align=left;verticalAlign=top;spacingLeft=4;spacingRight=4;overflow=hidden;rotatable=0;points=[[0,0.5],[1,0.5]];portConstraint=eastwest;whiteSpace=wrap;html=1;" parent="TZRwEb9DX03iSrNKigbo-61" vertex="1">
          <mxGeometry y="26" width="600" height="26" as="geometry" />
        </mxCell>
        <mxCell id="TZRwEb9DX03iSrNKigbo-63" value="~StateRelogin()" style="text;strokeColor=none;fillColor=none;align=left;verticalAlign=top;spacingLeft=4;spacingRight=4;overflow=hidden;rotatable=0;points=[[0,0.5],[1,0.5]];portConstraint=eastwest;whiteSpace=wrap;html=1;" parent="TZRwEb9DX03iSrNKigbo-61" vertex="1">
          <mxGeometry y="52" width="600" height="26" as="geometry" />
        </mxCell>
        <mxCell id="TZRwEb9DX03iSrNKigbo-64" value="" style="line;strokeWidth=1;fillColor=none;align=left;verticalAlign=middle;spacingTop=-1;spacingLeft=3;spacingRight=3;rotatable=0;labelPosition=right;points=[];portConstraint=eastwest;strokeColor=inherit;" parent="TZRwEb9DX03iSrNKigbo-61" vertex="1">
          <mxGeometry y="78" width="600" height="8" as="geometry" />
        </mxCell>
        <mxCell id="TZRwEb9DX03iSrNKigbo-20" value="class StateFailed : public AppState" style="swimlane;fontStyle=1;align=center;verticalAlign=top;childLayout=stackLayout;horizontal=1;startSize=26;horizontalStack=0;resizeParent=1;resizeParentMax=0;resizeLast=0;collapsible=1;marginBottom=0;whiteSpace=wrap;html=1;fillColor=#d5e8d4;strokeColor=#82b366;" parent="5i-djBijcil1WzK-Jz-j-176" vertex="1">
          <mxGeometry x="1400" y="1060" width="390" height="394" as="geometry" />
        </mxCell>
        <mxCell id="TZRwEb9DX03iSrNKigbo-21" value="private:" style="swimlane;fontStyle=1;align=center;verticalAlign=top;childLayout=stackLayout;horizontal=1;startSize=26;horizontalStack=0;resizeParent=1;resizeParentMax=0;resizeLast=0;collapsible=1;marginBottom=0;whiteSpace=wrap;html=1;fillColor=#dae8fc;strokeColor=#6c8ebf;" parent="TZRwEb9DX03iSrNKigbo-20" vertex="1">
          <mxGeometry y="26" width="390" height="164" as="geometry" />
        </mxCell>
        <mxCell id="TZRwEb9DX03iSrNKigbo-28" value="FluffyMultiplayer::AppState* state1;" style="text;strokeColor=none;fillColor=none;align=left;verticalAlign=top;spacingLeft=4;spacingRight=4;overflow=hidden;rotatable=0;points=[[0,0.5],[1,0.5]];portConstraint=eastwest;whiteSpace=wrap;html=1;" parent="TZRwEb9DX03iSrNKigbo-21" vertex="1">
          <mxGeometry y="26" width="390" height="26" as="geometry" />
        </mxCell>
        <mxCell id="TZRwEb9DX03iSrNKigbo-31" value="FluffyMultiplayer::AppState* state2" style="text;strokeColor=none;fillColor=none;align=left;verticalAlign=top;spacingLeft=4;spacingRight=4;overflow=hidden;rotatable=0;points=[[0,0.5],[1,0.5]];portConstraint=eastwest;whiteSpace=wrap;html=1;" parent="TZRwEb9DX03iSrNKigbo-21" vertex="1">
          <mxGeometry y="52" width="390" height="26" as="geometry" />
        </mxCell>
        <mxCell id="TZRwEb9DX03iSrNKigbo-30" value="FluffyMultiplayer::AppState* state3" style="text;strokeColor=none;fillColor=none;align=left;verticalAlign=top;spacingLeft=4;spacingRight=4;overflow=hidden;rotatable=0;points=[[0,0.5],[1,0.5]];portConstraint=eastwest;whiteSpace=wrap;html=1;" parent="TZRwEb9DX03iSrNKigbo-21" vertex="1">
          <mxGeometry y="78" width="390" height="26" as="geometry" />
        </mxCell>
        <mxCell id="TZRwEb9DX03iSrNKigbo-29" value="int outputStateCount;" style="text;strokeColor=none;fillColor=none;align=left;verticalAlign=top;spacingLeft=4;spacingRight=4;overflow=hidden;rotatable=0;points=[[0,0.5],[1,0.5]];portConstraint=eastwest;whiteSpace=wrap;html=1;" parent="TZRwEb9DX03iSrNKigbo-21" vertex="1">
          <mxGeometry y="104" width="390" height="26" as="geometry" />
        </mxCell>
        <mxCell id="TZRwEb9DX03iSrNKigbo-22" value="std::string* requestData" style="text;strokeColor=none;fillColor=none;align=left;verticalAlign=top;spacingLeft=4;spacingRight=4;overflow=hidden;rotatable=0;points=[[0,0.5],[1,0.5]];portConstraint=eastwest;whiteSpace=wrap;html=1;" parent="TZRwEb9DX03iSrNKigbo-21" vertex="1">
          <mxGeometry y="130" width="390" height="26" as="geometry" />
        </mxCell>
        <mxCell id="TZRwEb9DX03iSrNKigbo-23" value="" style="line;strokeWidth=1;fillColor=none;align=left;verticalAlign=middle;spacingTop=-1;spacingLeft=3;spacingRight=3;rotatable=0;labelPosition=right;points=[];portConstraint=eastwest;strokeColor=inherit;" parent="TZRwEb9DX03iSrNKigbo-21" vertex="1">
          <mxGeometry y="156" width="390" height="8" as="geometry" />
        </mxCell>
        <mxCell id="TZRwEb9DX03iSrNKigbo-24" value="public" style="swimlane;fontStyle=1;align=center;verticalAlign=top;childLayout=stackLayout;horizontal=1;startSize=26;horizontalStack=0;resizeParent=1;resizeParentMax=0;resizeLast=0;collapsible=1;marginBottom=0;whiteSpace=wrap;html=1;fillColor=#f8cecc;strokeColor=#b85450;" parent="TZRwEb9DX03iSrNKigbo-20" vertex="1">
          <mxGeometry y="190" width="390" height="204" as="geometry" />
        </mxCell>
        <mxCell id="TZRwEb9DX03iSrNKigbo-25" value="StateFailed(std::string, FluffyMultiplayer::AppState* ok,std::string*);" style="text;strokeColor=none;fillColor=none;align=left;verticalAlign=top;spacingLeft=4;spacingRight=4;overflow=hidden;rotatable=0;points=[[0,0.5],[1,0.5]];portConstraint=eastwest;whiteSpace=wrap;html=1;" parent="TZRwEb9DX03iSrNKigbo-24" vertex="1">
          <mxGeometry y="26" width="390" height="26" as="geometry" />
        </mxCell>
        <mxCell id="TZRwEb9DX03iSrNKigbo-33" value="&lt;div&gt;StateFailed(std::string,FluffyMultiplayer::AppState* retry,&lt;/div&gt;&lt;div&gt;&amp;nbsp; &amp;nbsp; &amp;nbsp; &amp;nbsp; &amp;nbsp; &amp;nbsp; &amp;nbsp; &amp;nbsp; &amp;nbsp; &amp;nbsp; &amp;nbsp; &amp;nbsp; &amp;nbsp; &amp;nbsp; &amp;nbsp;FluffyMultiplayer::AppState*cancel_or_quit,&lt;/div&gt;&lt;div&gt;&lt;span style=&quot;white-space: pre;&quot;&gt;&#x9;&lt;/span&gt;&lt;span style=&quot;white-space: pre;&quot;&gt;&#x9;&lt;/span&gt;&lt;span style=&quot;white-space: pre;&quot;&gt;&#x9;&lt;/span&gt;&amp;nbsp; &amp;nbsp; &amp;nbsp;std::string*);&lt;/div&gt;" style="text;strokeColor=none;fillColor=none;align=left;verticalAlign=top;spacingLeft=4;spacingRight=4;overflow=hidden;rotatable=0;points=[[0,0.5],[1,0.5]];portConstraint=eastwest;whiteSpace=wrap;html=1;" parent="TZRwEb9DX03iSrNKigbo-24" vertex="1">
          <mxGeometry y="52" width="390" height="58" as="geometry" />
        </mxCell>
        <mxCell id="TZRwEb9DX03iSrNKigbo-32" value="&lt;div&gt;StateFailed(std::string,FluffyMultiplayer::AppState* retry,&lt;/div&gt;&lt;div&gt;&amp;nbsp; &amp;nbsp; &amp;nbsp; &amp;nbsp; &amp;nbsp; &amp;nbsp; &amp;nbsp; &amp;nbsp; &amp;nbsp; &amp;nbsp; &amp;nbsp; &amp;nbsp; &amp;nbsp; &amp;nbsp; &amp;nbsp;FluffyMultiplayer::AppState* cancel_or_quit,&lt;/div&gt;&lt;div&gt;&amp;nbsp; &amp;nbsp; &amp;nbsp; &amp;nbsp; &amp;nbsp; &amp;nbsp; &amp;nbsp; &amp;nbsp; &amp;nbsp; &amp;nbsp; &amp;nbsp; &amp;nbsp; &amp;nbsp; &amp;nbsp; &amp;nbsp;FluffyMultiplayer::AppState* skip,std::string*);&lt;/div&gt;" style="text;strokeColor=none;fillColor=none;align=left;verticalAlign=top;spacingLeft=4;spacingRight=4;overflow=hidden;rotatable=0;points=[[0,0.5],[1,0.5]];portConstraint=eastwest;whiteSpace=wrap;html=1;" parent="TZRwEb9DX03iSrNKigbo-24" vertex="1">
          <mxGeometry y="110" width="390" height="60" as="geometry" />
        </mxCell>
        <mxCell id="TZRwEb9DX03iSrNKigbo-26" value="~StateFailed()" style="text;strokeColor=none;fillColor=none;align=left;verticalAlign=top;spacingLeft=4;spacingRight=4;overflow=hidden;rotatable=0;points=[[0,0.5],[1,0.5]];portConstraint=eastwest;whiteSpace=wrap;html=1;" parent="TZRwEb9DX03iSrNKigbo-24" vertex="1">
          <mxGeometry y="170" width="390" height="26" as="geometry" />
        </mxCell>
        <mxCell id="TZRwEb9DX03iSrNKigbo-27" value="" style="line;strokeWidth=1;fillColor=none;align=left;verticalAlign=middle;spacingTop=-1;spacingLeft=3;spacingRight=3;rotatable=0;labelPosition=right;points=[];portConstraint=eastwest;strokeColor=inherit;" parent="TZRwEb9DX03iSrNKigbo-24" vertex="1">
          <mxGeometry y="196" width="390" height="8" as="geometry" />
        </mxCell>
        <mxCell id="5i-djBijcil1WzK-Jz-j-157" value="class StateShowLobbyDetails : public AppState" style="swimlane;fontStyle=1;align=center;verticalAlign=top;childLayout=stackLayout;horizontal=1;startSize=26;horizontalStack=0;resizeParent=1;resizeParentMax=0;resizeLast=0;collapsible=1;marginBottom=0;whiteSpace=wrap;html=1;fillColor=#d5e8d4;strokeColor=#82b366;" vertex="1" parent="5i-djBijcil1WzK-Jz-j-176">
          <mxGeometry x="1990" y="1570" width="390" height="198" as="geometry" />
        </mxCell>
        <mxCell id="5i-djBijcil1WzK-Jz-j-158" value="private:" style="swimlane;fontStyle=1;align=center;verticalAlign=top;childLayout=stackLayout;horizontal=1;startSize=26;horizontalStack=0;resizeParent=1;resizeParentMax=0;resizeLast=0;collapsible=1;marginBottom=0;whiteSpace=wrap;html=1;fillColor=#dae8fc;strokeColor=#6c8ebf;" vertex="1" parent="5i-djBijcil1WzK-Jz-j-157">
          <mxGeometry y="26" width="390" height="86" as="geometry" />
        </mxCell>
        <mxCell id="5i-djBijcil1WzK-Jz-j-160" value="FluffyMultiplayer::LobbyData lobby;" style="text;strokeColor=none;fillColor=none;align=left;verticalAlign=top;spacingLeft=4;spacingRight=4;overflow=hidden;rotatable=0;points=[[0,0.5],[1,0.5]];portConstraint=eastwest;whiteSpace=wrap;html=1;" vertex="1" parent="5i-djBijcil1WzK-Jz-j-158">
          <mxGeometry y="26" width="390" height="26" as="geometry" />
        </mxCell>
        <mxCell id="5i-djBijcil1WzK-Jz-j-159" value="std::string boolToString(bool);" style="text;strokeColor=none;fillColor=none;align=left;verticalAlign=top;spacingLeft=4;spacingRight=4;overflow=hidden;rotatable=0;points=[[0,0.5],[1,0.5]];portConstraint=eastwest;whiteSpace=wrap;html=1;" vertex="1" parent="5i-djBijcil1WzK-Jz-j-158">
          <mxGeometry y="52" width="390" height="26" as="geometry" />
        </mxCell>
        <mxCell id="5i-djBijcil1WzK-Jz-j-163" value="" style="line;strokeWidth=1;fillColor=none;align=left;verticalAlign=middle;spacingTop=-1;spacingLeft=3;spacingRight=3;rotatable=0;labelPosition=right;points=[];portConstraint=eastwest;strokeColor=inherit;" vertex="1" parent="5i-djBijcil1WzK-Jz-j-158">
          <mxGeometry y="78" width="390" height="8" as="geometry" />
        </mxCell>
        <mxCell id="5i-djBijcil1WzK-Jz-j-164" value="public" style="swimlane;fontStyle=1;align=center;verticalAlign=top;childLayout=stackLayout;horizontal=1;startSize=26;horizontalStack=0;resizeParent=1;resizeParentMax=0;resizeLast=0;collapsible=1;marginBottom=0;whiteSpace=wrap;html=1;fillColor=#f8cecc;strokeColor=#b85450;" vertex="1" parent="5i-djBijcil1WzK-Jz-j-157">
          <mxGeometry y="112" width="390" height="86" as="geometry" />
        </mxCell>
        <mxCell id="5i-djBijcil1WzK-Jz-j-165" value="StateShowLobbyDetails(FluffyMultiplayer::LobbyData);" style="text;strokeColor=none;fillColor=none;align=left;verticalAlign=top;spacingLeft=4;spacingRight=4;overflow=hidden;rotatable=0;points=[[0,0.5],[1,0.5]];portConstraint=eastwest;whiteSpace=wrap;html=1;" vertex="1" parent="5i-djBijcil1WzK-Jz-j-164">
          <mxGeometry y="26" width="390" height="26" as="geometry" />
        </mxCell>
        <mxCell id="5i-djBijcil1WzK-Jz-j-167" value="~StateShowLobbyDetails()" style="text;strokeColor=none;fillColor=none;align=left;verticalAlign=top;spacingLeft=4;spacingRight=4;overflow=hidden;rotatable=0;points=[[0,0.5],[1,0.5]];portConstraint=eastwest;whiteSpace=wrap;html=1;" vertex="1" parent="5i-djBijcil1WzK-Jz-j-164">
          <mxGeometry y="52" width="390" height="26" as="geometry" />
        </mxCell>
        <mxCell id="5i-djBijcil1WzK-Jz-j-168" value="" style="line;strokeWidth=1;fillColor=none;align=left;verticalAlign=middle;spacingTop=-1;spacingLeft=3;spacingRight=3;rotatable=0;labelPosition=right;points=[];portConstraint=eastwest;strokeColor=inherit;" vertex="1" parent="5i-djBijcil1WzK-Jz-j-164">
          <mxGeometry y="78" width="390" height="8" as="geometry" />
        </mxCell>
        <mxCell id="5i-djBijcil1WzK-Jz-j-44" value="class StateConnectedToTheServer : public AppState" style="swimlane;fontStyle=1;align=center;verticalAlign=top;childLayout=stackLayout;horizontal=1;startSize=26;horizontalStack=0;resizeParent=1;resizeParentMax=0;resizeLast=0;collapsible=1;marginBottom=0;whiteSpace=wrap;html=1;fillColor=#d5e8d4;strokeColor=#82b366;" vertex="1" parent="5i-djBijcil1WzK-Jz-j-176">
          <mxGeometry x="1440" y="1550" width="390" height="146" as="geometry" />
        </mxCell>
        <mxCell id="5i-djBijcil1WzK-Jz-j-45" value="private:" style="swimlane;fontStyle=1;align=center;verticalAlign=top;childLayout=stackLayout;horizontal=1;startSize=26;horizontalStack=0;resizeParent=1;resizeParentMax=0;resizeLast=0;collapsible=1;marginBottom=0;whiteSpace=wrap;html=1;fillColor=#dae8fc;strokeColor=#6c8ebf;" vertex="1" parent="5i-djBijcil1WzK-Jz-j-44">
          <mxGeometry y="26" width="390" height="34" as="geometry" />
        </mxCell>
        <mxCell id="5i-djBijcil1WzK-Jz-j-50" value="" style="line;strokeWidth=1;fillColor=none;align=left;verticalAlign=middle;spacingTop=-1;spacingLeft=3;spacingRight=3;rotatable=0;labelPosition=right;points=[];portConstraint=eastwest;strokeColor=inherit;" vertex="1" parent="5i-djBijcil1WzK-Jz-j-45">
          <mxGeometry y="26" width="390" height="8" as="geometry" />
        </mxCell>
        <mxCell id="5i-djBijcil1WzK-Jz-j-51" value="public" style="swimlane;fontStyle=1;align=center;verticalAlign=top;childLayout=stackLayout;horizontal=1;startSize=26;horizontalStack=0;resizeParent=1;resizeParentMax=0;resizeLast=0;collapsible=1;marginBottom=0;whiteSpace=wrap;html=1;fillColor=#f8cecc;strokeColor=#b85450;" vertex="1" parent="5i-djBijcil1WzK-Jz-j-44">
          <mxGeometry y="60" width="390" height="86" as="geometry" />
        </mxCell>
        <mxCell id="5i-djBijcil1WzK-Jz-j-52" value="StateConnectedToTheServer()" style="text;strokeColor=none;fillColor=none;align=left;verticalAlign=top;spacingLeft=4;spacingRight=4;overflow=hidden;rotatable=0;points=[[0,0.5],[1,0.5]];portConstraint=eastwest;whiteSpace=wrap;html=1;" vertex="1" parent="5i-djBijcil1WzK-Jz-j-51">
          <mxGeometry y="26" width="390" height="26" as="geometry" />
        </mxCell>
        <mxCell id="5i-djBijcil1WzK-Jz-j-53" value="~StateConnectedToTheServer()" style="text;strokeColor=none;fillColor=none;align=left;verticalAlign=top;spacingLeft=4;spacingRight=4;overflow=hidden;rotatable=0;points=[[0,0.5],[1,0.5]];portConstraint=eastwest;whiteSpace=wrap;html=1;" vertex="1" parent="5i-djBijcil1WzK-Jz-j-51">
          <mxGeometry y="52" width="390" height="26" as="geometry" />
        </mxCell>
        <mxCell id="5i-djBijcil1WzK-Jz-j-54" value="" style="line;strokeWidth=1;fillColor=none;align=left;verticalAlign=middle;spacingTop=-1;spacingLeft=3;spacingRight=3;rotatable=0;labelPosition=right;points=[];portConstraint=eastwest;strokeColor=inherit;" vertex="1" parent="5i-djBijcil1WzK-Jz-j-51">
          <mxGeometry y="78" width="390" height="8" as="geometry" />
        </mxCell>
        <mxCell id="5i-djBijcil1WzK-Jz-j-55" value="class StateCreateLobbyForm : public AppState" style="swimlane;fontStyle=1;align=center;verticalAlign=top;childLayout=stackLayout;horizontal=1;startSize=26;horizontalStack=0;resizeParent=1;resizeParentMax=0;resizeLast=0;collapsible=1;marginBottom=0;whiteSpace=wrap;html=1;fillColor=#d5e8d4;strokeColor=#82b366;" vertex="1" parent="5i-djBijcil1WzK-Jz-j-176">
          <mxGeometry x="910" y="1360" width="390" height="198" as="geometry" />
        </mxCell>
        <mxCell id="5i-djBijcil1WzK-Jz-j-56" value="private:" style="swimlane;fontStyle=1;align=center;verticalAlign=top;childLayout=stackLayout;horizontal=1;startSize=26;horizontalStack=0;resizeParent=1;resizeParentMax=0;resizeLast=0;collapsible=1;marginBottom=0;whiteSpace=wrap;html=1;fillColor=#dae8fc;strokeColor=#6c8ebf;" vertex="1" parent="5i-djBijcil1WzK-Jz-j-55">
          <mxGeometry y="26" width="390" height="60" as="geometry" />
        </mxCell>
        <mxCell id="5i-djBijcil1WzK-Jz-j-57" value="FluffyMultiplayer::CreateLobbyFormData lobbyData;" style="text;strokeColor=none;fillColor=none;align=left;verticalAlign=top;spacingLeft=4;spacingRight=4;overflow=hidden;rotatable=0;points=[[0,0.5],[1,0.5]];portConstraint=eastwest;whiteSpace=wrap;html=1;" vertex="1" parent="5i-djBijcil1WzK-Jz-j-56">
          <mxGeometry y="26" width="390" height="26" as="geometry" />
        </mxCell>
        <mxCell id="5i-djBijcil1WzK-Jz-j-58" value="" style="line;strokeWidth=1;fillColor=none;align=left;verticalAlign=middle;spacingTop=-1;spacingLeft=3;spacingRight=3;rotatable=0;labelPosition=right;points=[];portConstraint=eastwest;strokeColor=inherit;" vertex="1" parent="5i-djBijcil1WzK-Jz-j-56">
          <mxGeometry y="52" width="390" height="8" as="geometry" />
        </mxCell>
        <mxCell id="5i-djBijcil1WzK-Jz-j-59" value="public" style="swimlane;fontStyle=1;align=center;verticalAlign=top;childLayout=stackLayout;horizontal=1;startSize=26;horizontalStack=0;resizeParent=1;resizeParentMax=0;resizeLast=0;collapsible=1;marginBottom=0;whiteSpace=wrap;html=1;fillColor=#f8cecc;strokeColor=#b85450;" vertex="1" parent="5i-djBijcil1WzK-Jz-j-55">
          <mxGeometry y="86" width="390" height="112" as="geometry" />
        </mxCell>
        <mxCell id="5i-djBijcil1WzK-Jz-j-63" value="StateCreateLobbyForm(FluffyMultiplayer::CreateLobbyFormData);" style="text;strokeColor=none;fillColor=none;align=left;verticalAlign=top;spacingLeft=4;spacingRight=4;overflow=hidden;rotatable=0;points=[[0,0.5],[1,0.5]];portConstraint=eastwest;whiteSpace=wrap;html=1;" vertex="1" parent="5i-djBijcil1WzK-Jz-j-59">
          <mxGeometry y="26" width="390" height="26" as="geometry" />
        </mxCell>
        <mxCell id="5i-djBijcil1WzK-Jz-j-60" value="StateCreateLobbyForm()" style="text;strokeColor=none;fillColor=none;align=left;verticalAlign=top;spacingLeft=4;spacingRight=4;overflow=hidden;rotatable=0;points=[[0,0.5],[1,0.5]];portConstraint=eastwest;whiteSpace=wrap;html=1;" vertex="1" parent="5i-djBijcil1WzK-Jz-j-59">
          <mxGeometry y="52" width="390" height="26" as="geometry" />
        </mxCell>
        <mxCell id="5i-djBijcil1WzK-Jz-j-61" value="~StateCreateLobbyForm()" style="text;strokeColor=none;fillColor=none;align=left;verticalAlign=top;spacingLeft=4;spacingRight=4;overflow=hidden;rotatable=0;points=[[0,0.5],[1,0.5]];portConstraint=eastwest;whiteSpace=wrap;html=1;" vertex="1" parent="5i-djBijcil1WzK-Jz-j-59">
          <mxGeometry y="78" width="390" height="26" as="geometry" />
        </mxCell>
        <mxCell id="5i-djBijcil1WzK-Jz-j-62" value="" style="line;strokeWidth=1;fillColor=none;align=left;verticalAlign=middle;spacingTop=-1;spacingLeft=3;spacingRight=3;rotatable=0;labelPosition=right;points=[];portConstraint=eastwest;strokeColor=inherit;" vertex="1" parent="5i-djBijcil1WzK-Jz-j-59">
          <mxGeometry y="104" width="390" height="8" as="geometry" />
        </mxCell>
        <mxCell id="TZRwEb9DX03iSrNKigbo-9" value="class StateConnectingToServer : public AppState" style="swimlane;fontStyle=1;align=center;verticalAlign=top;childLayout=stackLayout;horizontal=1;startSize=26;horizontalStack=0;resizeParent=1;resizeParentMax=0;resizeLast=0;collapsible=1;marginBottom=0;whiteSpace=wrap;html=1;fillColor=#d5e8d4;strokeColor=#82b366;" parent="5i-djBijcil1WzK-Jz-j-176" vertex="1">
          <mxGeometry x="960" y="1098" width="390" height="172" as="geometry" />
        </mxCell>
        <mxCell id="TZRwEb9DX03iSrNKigbo-10" value="private:" style="swimlane;fontStyle=1;align=center;verticalAlign=top;childLayout=stackLayout;horizontal=1;startSize=26;horizontalStack=0;resizeParent=1;resizeParentMax=0;resizeLast=0;collapsible=1;marginBottom=0;whiteSpace=wrap;html=1;fillColor=#dae8fc;strokeColor=#6c8ebf;" parent="TZRwEb9DX03iSrNKigbo-9" vertex="1">
          <mxGeometry y="26" width="390" height="60" as="geometry" />
        </mxCell>
        <mxCell id="TZRwEb9DX03iSrNKigbo-13" value="std::string req" style="text;strokeColor=none;fillColor=none;align=left;verticalAlign=top;spacingLeft=4;spacingRight=4;overflow=hidden;rotatable=0;points=[[0,0.5],[1,0.5]];portConstraint=eastwest;whiteSpace=wrap;html=1;" parent="TZRwEb9DX03iSrNKigbo-10" vertex="1">
          <mxGeometry y="26" width="390" height="26" as="geometry" />
        </mxCell>
        <mxCell id="TZRwEb9DX03iSrNKigbo-15" value="" style="line;strokeWidth=1;fillColor=none;align=left;verticalAlign=middle;spacingTop=-1;spacingLeft=3;spacingRight=3;rotatable=0;labelPosition=right;points=[];portConstraint=eastwest;strokeColor=inherit;" parent="TZRwEb9DX03iSrNKigbo-10" vertex="1">
          <mxGeometry y="52" width="390" height="8" as="geometry" />
        </mxCell>
        <mxCell id="TZRwEb9DX03iSrNKigbo-16" value="public" style="swimlane;fontStyle=1;align=center;verticalAlign=top;childLayout=stackLayout;horizontal=1;startSize=26;horizontalStack=0;resizeParent=1;resizeParentMax=0;resizeLast=0;collapsible=1;marginBottom=0;whiteSpace=wrap;html=1;fillColor=#f8cecc;strokeColor=#b85450;" parent="TZRwEb9DX03iSrNKigbo-9" vertex="1">
          <mxGeometry y="86" width="390" height="86" as="geometry" />
        </mxCell>
        <mxCell id="TZRwEb9DX03iSrNKigbo-17" value="StateConnectingToServer()" style="text;strokeColor=none;fillColor=none;align=left;verticalAlign=top;spacingLeft=4;spacingRight=4;overflow=hidden;rotatable=0;points=[[0,0.5],[1,0.5]];portConstraint=eastwest;whiteSpace=wrap;html=1;" parent="TZRwEb9DX03iSrNKigbo-16" vertex="1">
          <mxGeometry y="26" width="390" height="26" as="geometry" />
        </mxCell>
        <mxCell id="TZRwEb9DX03iSrNKigbo-18" value="~StateConnectingToServer()" style="text;strokeColor=none;fillColor=none;align=left;verticalAlign=top;spacingLeft=4;spacingRight=4;overflow=hidden;rotatable=0;points=[[0,0.5],[1,0.5]];portConstraint=eastwest;whiteSpace=wrap;html=1;" parent="TZRwEb9DX03iSrNKigbo-16" vertex="1">
          <mxGeometry y="52" width="390" height="26" as="geometry" />
        </mxCell>
        <mxCell id="TZRwEb9DX03iSrNKigbo-19" value="" style="line;strokeWidth=1;fillColor=none;align=left;verticalAlign=middle;spacingTop=-1;spacingLeft=3;spacingRight=3;rotatable=0;labelPosition=right;points=[];portConstraint=eastwest;strokeColor=inherit;" parent="TZRwEb9DX03iSrNKigbo-16" vertex="1">
          <mxGeometry y="78" width="390" height="8" as="geometry" />
        </mxCell>
        <mxCell id="5i-djBijcil1WzK-Jz-j-140" value="class StateRegisterForm : public AppState" style="swimlane;fontStyle=1;align=center;verticalAlign=top;childLayout=stackLayout;horizontal=1;startSize=26;horizontalStack=0;resizeParent=1;resizeParentMax=0;resizeLast=0;collapsible=1;marginBottom=0;whiteSpace=wrap;html=1;fillColor=#d5e8d4;strokeColor=#82b366;" vertex="1" parent="5i-djBijcil1WzK-Jz-j-176">
          <mxGeometry x="900" y="84" width="490" height="328" as="geometry" />
        </mxCell>
        <mxCell id="5i-djBijcil1WzK-Jz-j-141" value="private:" style="swimlane;fontStyle=1;align=center;verticalAlign=top;childLayout=stackLayout;horizontal=1;startSize=26;horizontalStack=0;resizeParent=1;resizeParentMax=0;resizeLast=0;collapsible=1;marginBottom=0;whiteSpace=wrap;html=1;fillColor=#dae8fc;strokeColor=#6c8ebf;" vertex="1" parent="5i-djBijcil1WzK-Jz-j-140">
          <mxGeometry y="26" width="490" height="190" as="geometry" />
        </mxCell>
        <mxCell id="5i-djBijcil1WzK-Jz-j-143" value="std::array&amp;lt;std::string,5&amp;gt; label_text;" style="text;strokeColor=none;fillColor=none;align=left;verticalAlign=top;spacingLeft=4;spacingRight=4;overflow=hidden;rotatable=0;points=[[0,0.5],[1,0.5]];portConstraint=eastwest;whiteSpace=wrap;html=1;" vertex="1" parent="5i-djBijcil1WzK-Jz-j-141">
          <mxGeometry y="26" width="490" height="26" as="geometry" />
        </mxCell>
        <mxCell id="5i-djBijcil1WzK-Jz-j-149" value="FluffyMultiplayer::RegisterFormData form_data;" style="text;strokeColor=none;fillColor=none;align=left;verticalAlign=top;spacingLeft=4;spacingRight=4;overflow=hidden;rotatable=0;points=[[0,0.5],[1,0.5]];portConstraint=eastwest;whiteSpace=wrap;html=1;" vertex="1" parent="5i-djBijcil1WzK-Jz-j-141">
          <mxGeometry y="52" width="490" height="26" as="geometry" />
        </mxCell>
        <mxCell id="5i-djBijcil1WzK-Jz-j-154" value="std::array&amp;lt;sf::Text,3&amp;gt; input_lables;" style="text;strokeColor=none;fillColor=none;align=left;verticalAlign=top;spacingLeft=4;spacingRight=4;overflow=hidden;rotatable=0;points=[[0,0.5],[1,0.5]];portConstraint=eastwest;whiteSpace=wrap;html=1;" vertex="1" parent="5i-djBijcil1WzK-Jz-j-141">
          <mxGeometry y="78" width="490" height="26" as="geometry" />
        </mxCell>
        <mxCell id="5i-djBijcil1WzK-Jz-j-153" value="std::array&amp;lt;sf::Sprite,3&amp;gt; input_sprite;" style="text;strokeColor=none;fillColor=none;align=left;verticalAlign=top;spacingLeft=4;spacingRight=4;overflow=hidden;rotatable=0;points=[[0,0.5],[1,0.5]];portConstraint=eastwest;whiteSpace=wrap;html=1;" vertex="1" parent="5i-djBijcil1WzK-Jz-j-141">
          <mxGeometry y="104" width="490" height="26" as="geometry" />
        </mxCell>
        <mxCell id="5i-djBijcil1WzK-Jz-j-152" value="std::array&amp;lt;sf::Text,6&amp;gt; form_labels;" style="text;strokeColor=none;fillColor=none;align=left;verticalAlign=top;spacingLeft=4;spacingRight=4;overflow=hidden;rotatable=0;points=[[0,0.5],[1,0.5]];portConstraint=eastwest;whiteSpace=wrap;html=1;" vertex="1" parent="5i-djBijcil1WzK-Jz-j-141">
          <mxGeometry y="130" width="490" height="26" as="geometry" />
        </mxCell>
        <mxCell id="5i-djBijcil1WzK-Jz-j-155" value="void initForm();" style="text;strokeColor=none;fillColor=none;align=left;verticalAlign=top;spacingLeft=4;spacingRight=4;overflow=hidden;rotatable=0;points=[[0,0.5],[1,0.5]];portConstraint=eastwest;whiteSpace=wrap;html=1;" vertex="1" parent="5i-djBijcil1WzK-Jz-j-141">
          <mxGeometry y="156" width="490" height="26" as="geometry" />
        </mxCell>
        <mxCell id="5i-djBijcil1WzK-Jz-j-144" value="" style="line;strokeWidth=1;fillColor=none;align=left;verticalAlign=middle;spacingTop=-1;spacingLeft=3;spacingRight=3;rotatable=0;labelPosition=right;points=[];portConstraint=eastwest;strokeColor=inherit;" vertex="1" parent="5i-djBijcil1WzK-Jz-j-141">
          <mxGeometry y="182" width="490" height="8" as="geometry" />
        </mxCell>
        <mxCell id="5i-djBijcil1WzK-Jz-j-145" value="public" style="swimlane;fontStyle=1;align=center;verticalAlign=top;childLayout=stackLayout;horizontal=1;startSize=26;horizontalStack=0;resizeParent=1;resizeParentMax=0;resizeLast=0;collapsible=1;marginBottom=0;whiteSpace=wrap;html=1;fillColor=#f8cecc;strokeColor=#b85450;" vertex="1" parent="5i-djBijcil1WzK-Jz-j-140">
          <mxGeometry y="216" width="490" height="112" as="geometry" />
        </mxCell>
        <mxCell id="5i-djBijcil1WzK-Jz-j-146" value="StateRegisterForm()" style="text;strokeColor=none;fillColor=none;align=left;verticalAlign=top;spacingLeft=4;spacingRight=4;overflow=hidden;rotatable=0;points=[[0,0.5],[1,0.5]];portConstraint=eastwest;whiteSpace=wrap;html=1;" vertex="1" parent="5i-djBijcil1WzK-Jz-j-145">
          <mxGeometry y="26" width="490" height="26" as="geometry" />
        </mxCell>
        <mxCell id="5i-djBijcil1WzK-Jz-j-156" value="StateRegisterForm(FluffyMultiplayer::RegisterFormData);" style="text;strokeColor=none;fillColor=none;align=left;verticalAlign=top;spacingLeft=4;spacingRight=4;overflow=hidden;rotatable=0;points=[[0,0.5],[1,0.5]];portConstraint=eastwest;whiteSpace=wrap;html=1;" vertex="1" parent="5i-djBijcil1WzK-Jz-j-145">
          <mxGeometry y="52" width="490" height="26" as="geometry" />
        </mxCell>
        <mxCell id="5i-djBijcil1WzK-Jz-j-147" value="~StateRegisterForm()" style="text;strokeColor=none;fillColor=none;align=left;verticalAlign=top;spacingLeft=4;spacingRight=4;overflow=hidden;rotatable=0;points=[[0,0.5],[1,0.5]];portConstraint=eastwest;whiteSpace=wrap;html=1;" vertex="1" parent="5i-djBijcil1WzK-Jz-j-145">
          <mxGeometry y="78" width="490" height="26" as="geometry" />
        </mxCell>
        <mxCell id="5i-djBijcil1WzK-Jz-j-148" value="" style="line;strokeWidth=1;fillColor=none;align=left;verticalAlign=middle;spacingTop=-1;spacingLeft=3;spacingRight=3;rotatable=0;labelPosition=right;points=[];portConstraint=eastwest;strokeColor=inherit;" vertex="1" parent="5i-djBijcil1WzK-Jz-j-145">
          <mxGeometry y="104" width="490" height="8" as="geometry" />
        </mxCell>
        <mxCell id="_MR5lmJ_xEQnUR5iK06d-124" value="class StateBindPickPort : public AppState" style="swimlane;fontStyle=1;align=center;verticalAlign=top;childLayout=stackLayout;horizontal=1;startSize=26;horizontalStack=0;resizeParent=1;resizeParentMax=0;resizeLast=0;collapsible=1;marginBottom=0;whiteSpace=wrap;html=1;fillColor=#d5e8d4;strokeColor=#82b366;" parent="5i-djBijcil1WzK-Jz-j-176" vertex="1">
          <mxGeometry x="990" y="502" width="390" height="250" as="geometry" />
        </mxCell>
        <mxCell id="_MR5lmJ_xEQnUR5iK06d-125" value="private:" style="swimlane;fontStyle=1;align=center;verticalAlign=top;childLayout=stackLayout;horizontal=1;startSize=26;horizontalStack=0;resizeParent=1;resizeParentMax=0;resizeLast=0;collapsible=1;marginBottom=0;whiteSpace=wrap;html=1;fillColor=#dae8fc;strokeColor=#6c8ebf;" parent="_MR5lmJ_xEQnUR5iK06d-124" vertex="1">
          <mxGeometry y="26" width="390" height="138" as="geometry" />
        </mxCell>
        <mxCell id="TZRwEb9DX03iSrNKigbo-6" value="bool isBusy" style="text;strokeColor=none;fillColor=none;align=left;verticalAlign=top;spacingLeft=4;spacingRight=4;overflow=hidden;rotatable=0;points=[[0,0.5],[1,0.5]];portConstraint=eastwest;whiteSpace=wrap;html=1;" parent="_MR5lmJ_xEQnUR5iK06d-125" vertex="1">
          <mxGeometry y="26" width="390" height="26" as="geometry" />
        </mxCell>
        <mxCell id="TZRwEb9DX03iSrNKigbo-8" value="int maxTry" style="text;strokeColor=none;fillColor=none;align=left;verticalAlign=top;spacingLeft=4;spacingRight=4;overflow=hidden;rotatable=0;points=[[0,0.5],[1,0.5]];portConstraint=eastwest;whiteSpace=wrap;html=1;" parent="_MR5lmJ_xEQnUR5iK06d-125" vertex="1">
          <mxGeometry y="52" width="390" height="26" as="geometry" />
        </mxCell>
        <mxCell id="TZRwEb9DX03iSrNKigbo-7" value="unsigned short genrate_random_number(int minRange, int maxRange)" style="text;strokeColor=none;fillColor=none;align=left;verticalAlign=top;spacingLeft=4;spacingRight=4;overflow=hidden;rotatable=0;points=[[0,0.5],[1,0.5]];portConstraint=eastwest;whiteSpace=wrap;html=1;" parent="_MR5lmJ_xEQnUR5iK06d-125" vertex="1">
          <mxGeometry y="78" width="390" height="26" as="geometry" />
        </mxCell>
        <mxCell id="_MR5lmJ_xEQnUR5iK06d-126" value="bool isPortBusy(unsigned short portNumber)" style="text;strokeColor=none;fillColor=none;align=left;verticalAlign=top;spacingLeft=4;spacingRight=4;overflow=hidden;rotatable=0;points=[[0,0.5],[1,0.5]];portConstraint=eastwest;whiteSpace=wrap;html=1;" parent="_MR5lmJ_xEQnUR5iK06d-125" vertex="1">
          <mxGeometry y="104" width="390" height="26" as="geometry" />
        </mxCell>
        <mxCell id="_MR5lmJ_xEQnUR5iK06d-127" value="" style="line;strokeWidth=1;fillColor=none;align=left;verticalAlign=middle;spacingTop=-1;spacingLeft=3;spacingRight=3;rotatable=0;labelPosition=right;points=[];portConstraint=eastwest;strokeColor=inherit;" parent="_MR5lmJ_xEQnUR5iK06d-125" vertex="1">
          <mxGeometry y="130" width="390" height="8" as="geometry" />
        </mxCell>
        <mxCell id="_MR5lmJ_xEQnUR5iK06d-128" value="public" style="swimlane;fontStyle=1;align=center;verticalAlign=top;childLayout=stackLayout;horizontal=1;startSize=26;horizontalStack=0;resizeParent=1;resizeParentMax=0;resizeLast=0;collapsible=1;marginBottom=0;whiteSpace=wrap;html=1;fillColor=#f8cecc;strokeColor=#b85450;" parent="_MR5lmJ_xEQnUR5iK06d-124" vertex="1">
          <mxGeometry y="164" width="390" height="86" as="geometry" />
        </mxCell>
        <mxCell id="_MR5lmJ_xEQnUR5iK06d-129" value="StateBindPickPort()" style="text;strokeColor=none;fillColor=none;align=left;verticalAlign=top;spacingLeft=4;spacingRight=4;overflow=hidden;rotatable=0;points=[[0,0.5],[1,0.5]];portConstraint=eastwest;whiteSpace=wrap;html=1;" parent="_MR5lmJ_xEQnUR5iK06d-128" vertex="1">
          <mxGeometry y="26" width="390" height="26" as="geometry" />
        </mxCell>
        <mxCell id="_MR5lmJ_xEQnUR5iK06d-130" value="~StateBindPickPort()" style="text;strokeColor=none;fillColor=none;align=left;verticalAlign=top;spacingLeft=4;spacingRight=4;overflow=hidden;rotatable=0;points=[[0,0.5],[1,0.5]];portConstraint=eastwest;whiteSpace=wrap;html=1;" parent="_MR5lmJ_xEQnUR5iK06d-128" vertex="1">
          <mxGeometry y="52" width="390" height="26" as="geometry" />
        </mxCell>
        <mxCell id="_MR5lmJ_xEQnUR5iK06d-131" value="" style="line;strokeWidth=1;fillColor=none;align=left;verticalAlign=middle;spacingTop=-1;spacingLeft=3;spacingRight=3;rotatable=0;labelPosition=right;points=[];portConstraint=eastwest;strokeColor=inherit;" parent="_MR5lmJ_xEQnUR5iK06d-128" vertex="1">
          <mxGeometry y="78" width="390" height="8" as="geometry" />
        </mxCell>
        <mxCell id="TZRwEb9DX03iSrNKigbo-34" value="class StateWaitForResponse : public AppState" style="swimlane;fontStyle=1;align=center;verticalAlign=top;childLayout=stackLayout;horizontal=1;startSize=26;horizontalStack=0;resizeParent=1;resizeParentMax=0;resizeLast=0;collapsible=1;marginBottom=0;whiteSpace=wrap;html=1;fillColor=#d5e8d4;strokeColor=#82b366;" parent="5i-djBijcil1WzK-Jz-j-176" vertex="1">
          <mxGeometry x="370" y="110" width="460" height="678" as="geometry" />
        </mxCell>
        <mxCell id="TZRwEb9DX03iSrNKigbo-35" value="private:" style="swimlane;fontStyle=1;align=center;verticalAlign=top;childLayout=stackLayout;horizontal=1;startSize=26;horizontalStack=0;resizeParent=1;resizeParentMax=0;resizeLast=0;collapsible=1;marginBottom=0;whiteSpace=wrap;html=1;fillColor=#dae8fc;strokeColor=#6c8ebf;" parent="TZRwEb9DX03iSrNKigbo-34" vertex="1">
          <mxGeometry y="26" width="460" height="370" as="geometry" />
        </mxCell>
        <mxCell id="TZRwEb9DX03iSrNKigbo-36" value="int timeoutCounter" style="text;strokeColor=none;fillColor=none;align=left;verticalAlign=top;spacingLeft=4;spacingRight=4;overflow=hidden;rotatable=0;points=[[0,0.5],[1,0.5]];portConstraint=eastwest;whiteSpace=wrap;html=1;" parent="TZRwEb9DX03iSrNKigbo-35" vertex="1">
          <mxGeometry y="26" width="460" height="26" as="geometry" />
        </mxCell>
        <mxCell id="TZRwEb9DX03iSrNKigbo-45" value="AppState* state1" style="text;strokeColor=none;fillColor=none;align=left;verticalAlign=top;spacingLeft=4;spacingRight=4;overflow=hidden;rotatable=0;points=[[0,0.5],[1,0.5]];portConstraint=eastwest;whiteSpace=wrap;html=1;" parent="TZRwEb9DX03iSrNKigbo-35" vertex="1">
          <mxGeometry y="52" width="460" height="26" as="geometry" />
        </mxCell>
        <mxCell id="TZRwEb9DX03iSrNKigbo-48" value="AppState* state2" style="text;strokeColor=none;fillColor=none;align=left;verticalAlign=top;spacingLeft=4;spacingRight=4;overflow=hidden;rotatable=0;points=[[0,0.5],[1,0.5]];portConstraint=eastwest;whiteSpace=wrap;html=1;" parent="TZRwEb9DX03iSrNKigbo-35" vertex="1">
          <mxGeometry y="78" width="460" height="26" as="geometry" />
        </mxCell>
        <mxCell id="TZRwEb9DX03iSrNKigbo-47" value="AppState* state3" style="text;strokeColor=none;fillColor=none;align=left;verticalAlign=top;spacingLeft=4;spacingRight=4;overflow=hidden;rotatable=0;points=[[0,0.5],[1,0.5]];portConstraint=eastwest;whiteSpace=wrap;html=1;" parent="TZRwEb9DX03iSrNKigbo-35" vertex="1">
          <mxGeometry y="104" width="460" height="26" as="geometry" />
        </mxCell>
        <mxCell id="TZRwEb9DX03iSrNKigbo-46" value="int responseCodeAcceptor //an int if response value equals with this return state 2" style="text;strokeColor=none;fillColor=none;align=left;verticalAlign=top;spacingLeft=4;spacingRight=4;overflow=hidden;rotatable=0;points=[[0,0.5],[1,0.5]];portConstraint=eastwest;whiteSpace=wrap;html=1;" parent="TZRwEb9DX03iSrNKigbo-35" vertex="1">
          <mxGeometry y="130" width="460" height="26" as="geometry" />
        </mxCell>
        <mxCell id="TZRwEb9DX03iSrNKigbo-44" value="int responseCodeAcceptor2 //an int if response value equals with this return state 3" style="text;strokeColor=none;fillColor=none;align=left;verticalAlign=top;spacingLeft=4;spacingRight=4;overflow=hidden;rotatable=0;points=[[0,0.5],[1,0.5]];portConstraint=eastwest;whiteSpace=wrap;html=1;" parent="TZRwEb9DX03iSrNKigbo-35" vertex="1">
          <mxGeometry y="156" width="460" height="26" as="geometry" />
        </mxCell>
        <mxCell id="TZRwEb9DX03iSrNKigbo-43" value="std::string text //who call this will set this Text and will display on this state as sf::Text" style="text;strokeColor=none;fillColor=none;align=left;verticalAlign=top;spacingLeft=4;spacingRight=4;overflow=hidden;rotatable=0;points=[[0,0.5],[1,0.5]];portConstraint=eastwest;whiteSpace=wrap;html=1;" parent="TZRwEb9DX03iSrNKigbo-35" vertex="1">
          <mxGeometry y="182" width="460" height="26" as="geometry" />
        </mxCell>
        <mxCell id="TZRwEb9DX03iSrNKigbo-51" value="std::string receivedData //to hold received data from queue.front() because this var is used in update and update will run too much initilize this here to do optimize" style="text;strokeColor=none;fillColor=none;align=left;verticalAlign=top;spacingLeft=4;spacingRight=4;overflow=hidden;rotatable=0;points=[[0,0.5],[1,0.5]];portConstraint=eastwest;whiteSpace=wrap;html=1;" parent="TZRwEb9DX03iSrNKigbo-35" vertex="1">
          <mxGeometry y="208" width="460" height="52" as="geometry" />
        </mxCell>
        <mxCell id="TZRwEb9DX03iSrNKigbo-50" value="std::string requestData //will hold request (same data wil push into senedQueue)&amp;nbsp; when we want pass this state into StateFailed we need pass this request too." style="text;strokeColor=none;fillColor=none;align=left;verticalAlign=top;spacingLeft=4;spacingRight=4;overflow=hidden;rotatable=0;points=[[0,0.5],[1,0.5]];portConstraint=eastwest;whiteSpace=wrap;html=1;" parent="TZRwEb9DX03iSrNKigbo-35" vertex="1">
          <mxGeometry y="260" width="460" height="50" as="geometry" />
        </mxCell>
        <mxCell id="TZRwEb9DX03iSrNKigbo-49" value="sf::Text timeouttext" style="text;strokeColor=none;fillColor=none;align=left;verticalAlign=top;spacingLeft=4;spacingRight=4;overflow=hidden;rotatable=0;points=[[0,0.5],[1,0.5]];portConstraint=eastwest;whiteSpace=wrap;html=1;" parent="TZRwEb9DX03iSrNKigbo-35" vertex="1">
          <mxGeometry y="310" width="460" height="26" as="geometry" />
        </mxCell>
        <mxCell id="TZRwEb9DX03iSrNKigbo-42" value="bool requestSent //a flat to make a code run once in function update." style="text;strokeColor=none;fillColor=none;align=left;verticalAlign=top;spacingLeft=4;spacingRight=4;overflow=hidden;rotatable=0;points=[[0,0.5],[1,0.5]];portConstraint=eastwest;whiteSpace=wrap;html=1;" parent="TZRwEb9DX03iSrNKigbo-35" vertex="1">
          <mxGeometry y="336" width="460" height="26" as="geometry" />
        </mxCell>
        <mxCell id="TZRwEb9DX03iSrNKigbo-37" value="" style="line;strokeWidth=1;fillColor=none;align=left;verticalAlign=middle;spacingTop=-1;spacingLeft=3;spacingRight=3;rotatable=0;labelPosition=right;points=[];portConstraint=eastwest;strokeColor=inherit;" parent="TZRwEb9DX03iSrNKigbo-35" vertex="1">
          <mxGeometry y="362" width="460" height="8" as="geometry" />
        </mxCell>
        <mxCell id="TZRwEb9DX03iSrNKigbo-38" value="public" style="swimlane;fontStyle=1;align=center;verticalAlign=top;childLayout=stackLayout;horizontal=1;startSize=26;horizontalStack=0;resizeParent=1;resizeParentMax=0;resizeLast=0;collapsible=1;marginBottom=0;whiteSpace=wrap;html=1;fillColor=#f8cecc;strokeColor=#b85450;" parent="TZRwEb9DX03iSrNKigbo-34" vertex="1">
          <mxGeometry y="396" width="460" height="282" as="geometry" />
        </mxCell>
        <mxCell id="TZRwEb9DX03iSrNKigbo-53" value="StateWaitForResponse(std::string text,const std::string&amp;amp; request);" style="text;strokeColor=none;fillColor=none;align=left;verticalAlign=top;spacingLeft=4;spacingRight=4;overflow=hidden;rotatable=0;points=[[0,0.5],[1,0.5]];portConstraint=eastwest;whiteSpace=wrap;html=1;" parent="TZRwEb9DX03iSrNKigbo-38" vertex="1">
          <mxGeometry y="26" width="460" height="44" as="geometry" />
        </mxCell>
        <mxCell id="TZRwEb9DX03iSrNKigbo-52" value="&lt;div&gt;StateWaitForResponse(std::string text,const std::string&amp;amp; request,&amp;nbsp;&lt;/div&gt;&lt;div&gt;&lt;span style=&quot;white-space: pre;&quot;&gt;&#x9;&lt;/span&gt;&lt;span style=&quot;white-space: pre;&quot;&gt;&#x9;&lt;/span&gt;&lt;span style=&quot;white-space: pre;&quot;&gt;&#x9;&lt;/span&gt;&amp;nbsp;AppState* retryState,&lt;/div&gt;&lt;div&gt;&amp;nbsp; &amp;nbsp; &amp;nbsp; &amp;nbsp; &amp;nbsp; &amp;nbsp; &amp;nbsp; &amp;nbsp; &amp;nbsp; &amp;nbsp; &amp;nbsp; &amp;nbsp; &amp;nbsp;AppState* acceptedState,&lt;/div&gt;&lt;div&gt;&amp;nbsp; &amp;nbsp; &amp;nbsp; &amp;nbsp; &amp;nbsp; &amp;nbsp; &amp;nbsp; &amp;nbsp; &amp;nbsp; &amp;nbsp; &amp;nbsp; &amp;nbsp; &amp;nbsp;int responseCodeAccepts);&lt;/div&gt;" style="text;strokeColor=none;fillColor=none;align=left;verticalAlign=top;spacingLeft=4;spacingRight=4;overflow=hidden;rotatable=0;points=[[0,0.5],[1,0.5]];portConstraint=eastwest;whiteSpace=wrap;html=1;" parent="TZRwEb9DX03iSrNKigbo-38" vertex="1">
          <mxGeometry y="70" width="460" height="78" as="geometry" />
        </mxCell>
        <mxCell id="TZRwEb9DX03iSrNKigbo-39" value="&lt;div&gt;StateWaitForResponse(std::string text,const std::string&amp;amp; request,&amp;nbsp;&lt;/div&gt;&lt;div&gt;&lt;span style=&quot;white-space: pre;&quot;&gt;&#x9;&lt;/span&gt;&lt;span style=&quot;white-space: pre;&quot;&gt;&#x9;&lt;/span&gt;&lt;span style=&quot;white-space: pre;&quot;&gt;&#x9;&lt;/span&gt;AppState* retryState,&lt;/div&gt;&lt;div&gt;&amp;nbsp; &amp;nbsp; &amp;nbsp; &amp;nbsp; &amp;nbsp; &amp;nbsp; &amp;nbsp; &amp;nbsp; &amp;nbsp; &amp;nbsp; &amp;nbsp; &amp;nbsp; AppState* acceptedState,&lt;/div&gt;&lt;div&gt;&amp;nbsp; &amp;nbsp; &amp;nbsp; &amp;nbsp; &amp;nbsp; &amp;nbsp; &amp;nbsp; &amp;nbsp; &amp;nbsp; &amp;nbsp; &amp;nbsp; &amp;nbsp; AppState* acceptedState2,&lt;/div&gt;&lt;div&gt;&amp;nbsp; &amp;nbsp; &amp;nbsp; &amp;nbsp; &amp;nbsp; &amp;nbsp; &amp;nbsp; &amp;nbsp; &amp;nbsp; &amp;nbsp; &amp;nbsp; &amp;nbsp; int responseCodeAccepts,int responseCodeAccepts2);&lt;/div&gt;" style="text;strokeColor=none;fillColor=none;align=left;verticalAlign=top;spacingLeft=4;spacingRight=4;overflow=hidden;rotatable=0;points=[[0,0.5],[1,0.5]];portConstraint=eastwest;whiteSpace=wrap;html=1;" parent="TZRwEb9DX03iSrNKigbo-38" vertex="1">
          <mxGeometry y="148" width="460" height="100" as="geometry" />
        </mxCell>
        <mxCell id="TZRwEb9DX03iSrNKigbo-40" value="~StateConnectingToServer()" style="text;strokeColor=none;fillColor=none;align=left;verticalAlign=top;spacingLeft=4;spacingRight=4;overflow=hidden;rotatable=0;points=[[0,0.5],[1,0.5]];portConstraint=eastwest;whiteSpace=wrap;html=1;" parent="TZRwEb9DX03iSrNKigbo-38" vertex="1">
          <mxGeometry y="248" width="460" height="26" as="geometry" />
        </mxCell>
        <mxCell id="TZRwEb9DX03iSrNKigbo-41" value="" style="line;strokeWidth=1;fillColor=none;align=left;verticalAlign=middle;spacingTop=-1;spacingLeft=3;spacingRight=3;rotatable=0;labelPosition=right;points=[];portConstraint=eastwest;strokeColor=inherit;" parent="TZRwEb9DX03iSrNKigbo-38" vertex="1">
          <mxGeometry y="274" width="460" height="8" as="geometry" />
        </mxCell>
        <mxCell id="5i-djBijcil1WzK-Jz-j-64" value="class StateEnd : public AppState" style="swimlane;fontStyle=1;align=center;verticalAlign=top;childLayout=stackLayout;horizontal=1;startSize=26;horizontalStack=0;resizeParent=1;resizeParentMax=0;resizeLast=0;collapsible=1;marginBottom=0;whiteSpace=wrap;html=1;fillColor=#d5e8d4;strokeColor=#82b366;" vertex="1" parent="5i-djBijcil1WzK-Jz-j-176">
          <mxGeometry x="940" y="840" width="390" height="172" as="geometry" />
        </mxCell>
        <mxCell id="5i-djBijcil1WzK-Jz-j-65" value="private:" style="swimlane;fontStyle=1;align=center;verticalAlign=top;childLayout=stackLayout;horizontal=1;startSize=26;horizontalStack=0;resizeParent=1;resizeParentMax=0;resizeLast=0;collapsible=1;marginBottom=0;whiteSpace=wrap;html=1;fillColor=#dae8fc;strokeColor=#6c8ebf;" vertex="1" parent="5i-djBijcil1WzK-Jz-j-64">
          <mxGeometry y="26" width="390" height="60" as="geometry" />
        </mxCell>
        <mxCell id="5i-djBijcil1WzK-Jz-j-66" value="std::string req" style="text;strokeColor=none;fillColor=none;align=left;verticalAlign=top;spacingLeft=4;spacingRight=4;overflow=hidden;rotatable=0;points=[[0,0.5],[1,0.5]];portConstraint=eastwest;whiteSpace=wrap;html=1;" vertex="1" parent="5i-djBijcil1WzK-Jz-j-65">
          <mxGeometry y="26" width="390" height="26" as="geometry" />
        </mxCell>
        <mxCell id="5i-djBijcil1WzK-Jz-j-67" value="" style="line;strokeWidth=1;fillColor=none;align=left;verticalAlign=middle;spacingTop=-1;spacingLeft=3;spacingRight=3;rotatable=0;labelPosition=right;points=[];portConstraint=eastwest;strokeColor=inherit;" vertex="1" parent="5i-djBijcil1WzK-Jz-j-65">
          <mxGeometry y="52" width="390" height="8" as="geometry" />
        </mxCell>
        <mxCell id="5i-djBijcil1WzK-Jz-j-68" value="public" style="swimlane;fontStyle=1;align=center;verticalAlign=top;childLayout=stackLayout;horizontal=1;startSize=26;horizontalStack=0;resizeParent=1;resizeParentMax=0;resizeLast=0;collapsible=1;marginBottom=0;whiteSpace=wrap;html=1;fillColor=#f8cecc;strokeColor=#b85450;" vertex="1" parent="5i-djBijcil1WzK-Jz-j-64">
          <mxGeometry y="86" width="390" height="86" as="geometry" />
        </mxCell>
        <mxCell id="5i-djBijcil1WzK-Jz-j-69" value="StateEnd()" style="text;strokeColor=none;fillColor=none;align=left;verticalAlign=top;spacingLeft=4;spacingRight=4;overflow=hidden;rotatable=0;points=[[0,0.5],[1,0.5]];portConstraint=eastwest;whiteSpace=wrap;html=1;" vertex="1" parent="5i-djBijcil1WzK-Jz-j-68">
          <mxGeometry y="26" width="390" height="26" as="geometry" />
        </mxCell>
        <mxCell id="5i-djBijcil1WzK-Jz-j-70" value="~StateEnd()" style="text;strokeColor=none;fillColor=none;align=left;verticalAlign=top;spacingLeft=4;spacingRight=4;overflow=hidden;rotatable=0;points=[[0,0.5],[1,0.5]];portConstraint=eastwest;whiteSpace=wrap;html=1;" vertex="1" parent="5i-djBijcil1WzK-Jz-j-68">
          <mxGeometry y="52" width="390" height="26" as="geometry" />
        </mxCell>
        <mxCell id="5i-djBijcil1WzK-Jz-j-71" value="" style="line;strokeWidth=1;fillColor=none;align=left;verticalAlign=middle;spacingTop=-1;spacingLeft=3;spacingRight=3;rotatable=0;labelPosition=right;points=[];portConstraint=eastwest;strokeColor=inherit;" vertex="1" parent="5i-djBijcil1WzK-Jz-j-68">
          <mxGeometry y="78" width="390" height="8" as="geometry" />
        </mxCell>
        <mxCell id="5i-djBijcil1WzK-Jz-j-72" value="class StateFailed : public AppState" style="swimlane;fontStyle=1;align=center;verticalAlign=top;childLayout=stackLayout;horizontal=1;startSize=26;horizontalStack=0;resizeParent=1;resizeParentMax=0;resizeLast=0;collapsible=1;marginBottom=0;whiteSpace=wrap;html=1;fillColor=#d5e8d4;strokeColor=#82b366;" vertex="1" parent="5i-djBijcil1WzK-Jz-j-176">
          <mxGeometry x="350" y="882" width="530" height="388" as="geometry" />
        </mxCell>
        <mxCell id="5i-djBijcil1WzK-Jz-j-73" value="private:" style="swimlane;fontStyle=1;align=center;verticalAlign=top;childLayout=stackLayout;horizontal=1;startSize=26;horizontalStack=0;resizeParent=1;resizeParentMax=0;resizeLast=0;collapsible=1;marginBottom=0;whiteSpace=wrap;html=1;fillColor=#dae8fc;strokeColor=#6c8ebf;" vertex="1" parent="5i-djBijcil1WzK-Jz-j-72">
          <mxGeometry y="26" width="530" height="188" as="geometry" />
        </mxCell>
        <mxCell id="5i-djBijcil1WzK-Jz-j-80" value="&lt;div style=&quot;border-color: var(--border-color);&quot;&gt;int outputStateCount;&lt;/div&gt;&lt;div&gt;&lt;br&gt;&lt;/div&gt;" style="text;strokeColor=none;fillColor=none;align=left;verticalAlign=top;spacingLeft=4;spacingRight=4;overflow=hidden;rotatable=0;points=[[0,0.5],[1,0.5]];portConstraint=eastwest;whiteSpace=wrap;html=1;" vertex="1" parent="5i-djBijcil1WzK-Jz-j-73">
          <mxGeometry y="26" width="530" height="26" as="geometry" />
        </mxCell>
        <mxCell id="5i-djBijcil1WzK-Jz-j-84" value="&lt;div style=&quot;border-color: var(--border-color);&quot;&gt;FluffyMultiplayer::AppState* state1;&lt;br style=&quot;border-color: var(--border-color);&quot;&gt;&lt;/div&gt;&lt;div&gt;&lt;span style=&quot;border-color: var(--border-color); background-color: initial;&quot;&gt;&lt;br&gt;&lt;/span&gt;&lt;/div&gt;" style="text;strokeColor=none;fillColor=none;align=left;verticalAlign=top;spacingLeft=4;spacingRight=4;overflow=hidden;rotatable=0;points=[[0,0.5],[1,0.5]];portConstraint=eastwest;whiteSpace=wrap;html=1;" vertex="1" parent="5i-djBijcil1WzK-Jz-j-73">
          <mxGeometry y="52" width="530" height="26" as="geometry" />
        </mxCell>
        <mxCell id="5i-djBijcil1WzK-Jz-j-85" value="&lt;div style=&quot;border-color: var(--border-color);&quot;&gt;FluffyMultiplayer::AppState* state2;&lt;br style=&quot;border-color: var(--border-color);&quot;&gt;&lt;/div&gt;&lt;div&gt;&lt;span style=&quot;border-color: var(--border-color); background-color: initial;&quot;&gt;&lt;br&gt;&lt;/span&gt;&lt;/div&gt;" style="text;strokeColor=none;fillColor=none;align=left;verticalAlign=top;spacingLeft=4;spacingRight=4;overflow=hidden;rotatable=0;points=[[0,0.5],[1,0.5]];portConstraint=eastwest;whiteSpace=wrap;html=1;" vertex="1" parent="5i-djBijcil1WzK-Jz-j-73">
          <mxGeometry y="78" width="530" height="26" as="geometry" />
        </mxCell>
        <mxCell id="5i-djBijcil1WzK-Jz-j-82" value="&lt;div style=&quot;border-color: var(--border-color);&quot;&gt;FluffyMultiplayer::AppState* state3;&lt;br style=&quot;border-color: var(--border-color);&quot;&gt;&lt;/div&gt;&lt;div&gt;&lt;span style=&quot;border-color: var(--border-color); background-color: initial;&quot;&gt;&lt;br&gt;&lt;/span&gt;&lt;/div&gt;" style="text;strokeColor=none;fillColor=none;align=left;verticalAlign=top;spacingLeft=4;spacingRight=4;overflow=hidden;rotatable=0;points=[[0,0.5],[1,0.5]];portConstraint=eastwest;whiteSpace=wrap;html=1;" vertex="1" parent="5i-djBijcil1WzK-Jz-j-73">
          <mxGeometry y="104" width="530" height="26" as="geometry" />
        </mxCell>
        <mxCell id="5i-djBijcil1WzK-Jz-j-83" value="&lt;div style=&quot;border-color: var(--border-color);&quot;&gt;std::string* requestData;&lt;br style=&quot;border-color: var(--border-color);&quot;&gt;&lt;/div&gt;&lt;div&gt;&lt;span style=&quot;border-color: var(--border-color); background-color: initial;&quot;&gt;&lt;br&gt;&lt;/span&gt;&lt;/div&gt;" style="text;strokeColor=none;fillColor=none;align=left;verticalAlign=top;spacingLeft=4;spacingRight=4;overflow=hidden;rotatable=0;points=[[0,0.5],[1,0.5]];portConstraint=eastwest;whiteSpace=wrap;html=1;" vertex="1" parent="5i-djBijcil1WzK-Jz-j-73">
          <mxGeometry y="130" width="530" height="26" as="geometry" />
        </mxCell>
        <mxCell id="5i-djBijcil1WzK-Jz-j-81" value="std::string text; //to hold and assign by _text from constructor to show client display message&amp;nbsp;" style="text;strokeColor=none;fillColor=none;align=left;verticalAlign=top;spacingLeft=4;spacingRight=4;overflow=hidden;rotatable=0;points=[[0,0.5],[1,0.5]];portConstraint=eastwest;whiteSpace=wrap;html=1;" vertex="1" parent="5i-djBijcil1WzK-Jz-j-73">
          <mxGeometry y="156" width="530" height="24" as="geometry" />
        </mxCell>
        <mxCell id="5i-djBijcil1WzK-Jz-j-75" value="" style="line;strokeWidth=1;fillColor=none;align=left;verticalAlign=middle;spacingTop=-1;spacingLeft=3;spacingRight=3;rotatable=0;labelPosition=right;points=[];portConstraint=eastwest;strokeColor=inherit;" vertex="1" parent="5i-djBijcil1WzK-Jz-j-73">
          <mxGeometry y="180" width="530" height="8" as="geometry" />
        </mxCell>
        <mxCell id="5i-djBijcil1WzK-Jz-j-76" value="public //that string* is for requests in some case need to pass request into previeseState" style="swimlane;fontStyle=1;align=center;verticalAlign=top;childLayout=stackLayout;horizontal=1;startSize=26;horizontalStack=0;resizeParent=1;resizeParentMax=0;resizeLast=0;collapsible=1;marginBottom=0;whiteSpace=wrap;html=1;fillColor=#f8cecc;strokeColor=#b85450;" vertex="1" parent="5i-djBijcil1WzK-Jz-j-72">
          <mxGeometry y="214" width="530" height="174" as="geometry" />
        </mxCell>
        <mxCell id="5i-djBijcil1WzK-Jz-j-88" value="&lt;div style=&quot;border-color: var(--border-color);&quot;&gt;StateFailed(std::string, FluffyMultiplayer::AppState* ok,std::string*);&lt;/div&gt;" style="text;strokeColor=none;fillColor=none;align=left;verticalAlign=top;spacingLeft=4;spacingRight=4;overflow=hidden;rotatable=0;points=[[0,0.5],[1,0.5]];portConstraint=eastwest;whiteSpace=wrap;html=1;" vertex="1" parent="5i-djBijcil1WzK-Jz-j-76">
          <mxGeometry y="26" width="530" height="26" as="geometry" />
        </mxCell>
        <mxCell id="5i-djBijcil1WzK-Jz-j-87" value="&lt;div style=&quot;border-color: var(--border-color);&quot;&gt;StateFailed(std::string,FluffyMultiplayer::AppState* retry,&amp;nbsp;&lt;span style=&quot;background-color: initial;&quot;&gt;FluffyMultiplayer::AppState* cancel_or_quit,std::string*);&lt;/span&gt;&lt;/div&gt;" style="text;strokeColor=none;fillColor=none;align=left;verticalAlign=top;spacingLeft=4;spacingRight=4;overflow=hidden;rotatable=0;points=[[0,0.5],[1,0.5]];portConstraint=eastwest;whiteSpace=wrap;html=1;" vertex="1" parent="5i-djBijcil1WzK-Jz-j-76">
          <mxGeometry y="52" width="530" height="44" as="geometry" />
        </mxCell>
        <mxCell id="5i-djBijcil1WzK-Jz-j-86" value="&lt;div style=&quot;border-color: var(--border-color);&quot;&gt;StateFailed(std::string,FluffyMultiplayer::AppState* retry,&amp;nbsp;&lt;span style=&quot;background-color: initial;&quot;&gt;FluffyMultiplayer::AppState* cancel_or_quit,&lt;/span&gt;&lt;span style=&quot;background-color: initial;&quot;&gt;FluffyMultiplayer::AppState* skip,std::string*);&lt;/span&gt;&lt;/div&gt;" style="text;strokeColor=none;fillColor=none;align=left;verticalAlign=top;spacingLeft=4;spacingRight=4;overflow=hidden;rotatable=0;points=[[0,0.5],[1,0.5]];portConstraint=eastwest;whiteSpace=wrap;html=1;" vertex="1" parent="5i-djBijcil1WzK-Jz-j-76">
          <mxGeometry y="96" width="530" height="44" as="geometry" />
        </mxCell>
        <mxCell id="5i-djBijcil1WzK-Jz-j-78" value="~StateFailed()" style="text;strokeColor=none;fillColor=none;align=left;verticalAlign=top;spacingLeft=4;spacingRight=4;overflow=hidden;rotatable=0;points=[[0,0.5],[1,0.5]];portConstraint=eastwest;whiteSpace=wrap;html=1;" vertex="1" parent="5i-djBijcil1WzK-Jz-j-76">
          <mxGeometry y="140" width="530" height="26" as="geometry" />
        </mxCell>
        <mxCell id="5i-djBijcil1WzK-Jz-j-79" value="" style="line;strokeWidth=1;fillColor=none;align=left;verticalAlign=middle;spacingTop=-1;spacingLeft=3;spacingRight=3;rotatable=0;labelPosition=right;points=[];portConstraint=eastwest;strokeColor=inherit;" vertex="1" parent="5i-djBijcil1WzK-Jz-j-76">
          <mxGeometry y="166" width="530" height="8" as="geometry" />
        </mxCell>
        <mxCell id="5i-djBijcil1WzK-Jz-j-90" value="class StateJoinLobby : public AppState" style="swimlane;fontStyle=1;align=center;verticalAlign=top;childLayout=stackLayout;horizontal=1;startSize=26;horizontalStack=0;resizeParent=1;resizeParentMax=0;resizeLast=0;collapsible=1;marginBottom=0;whiteSpace=wrap;html=1;fillColor=#d5e8d4;strokeColor=#82b366;" vertex="1" parent="5i-djBijcil1WzK-Jz-j-176">
          <mxGeometry x="400" y="1360" width="390" height="276" as="geometry" />
        </mxCell>
        <mxCell id="5i-djBijcil1WzK-Jz-j-91" value="private:" style="swimlane;fontStyle=1;align=center;verticalAlign=top;childLayout=stackLayout;horizontal=1;startSize=26;horizontalStack=0;resizeParent=1;resizeParentMax=0;resizeLast=0;collapsible=1;marginBottom=0;whiteSpace=wrap;html=1;fillColor=#dae8fc;strokeColor=#6c8ebf;" vertex="1" parent="5i-djBijcil1WzK-Jz-j-90">
          <mxGeometry y="26" width="390" height="138" as="geometry" />
        </mxCell>
        <mxCell id="5i-djBijcil1WzK-Jz-j-92" value="FluffyMultiplayer::AnAddress gameServerAddress;" style="text;strokeColor=none;fillColor=none;align=left;verticalAlign=top;spacingLeft=4;spacingRight=4;overflow=hidden;rotatable=0;points=[[0,0.5],[1,0.5]];portConstraint=eastwest;whiteSpace=wrap;html=1;" vertex="1" parent="5i-djBijcil1WzK-Jz-j-91">
          <mxGeometry y="26" width="390" height="26" as="geometry" />
        </mxCell>
        <mxCell id="5i-djBijcil1WzK-Jz-j-99" value="FluffyMultiplayer::AnAddress convertStringToAddress(std::string);" style="text;strokeColor=none;fillColor=none;align=left;verticalAlign=top;spacingLeft=4;spacingRight=4;overflow=hidden;rotatable=0;points=[[0,0.5],[1,0.5]];portConstraint=eastwest;whiteSpace=wrap;html=1;" vertex="1" parent="5i-djBijcil1WzK-Jz-j-91">
          <mxGeometry y="52" width="390" height="26" as="geometry" />
        </mxCell>
        <mxCell id="5i-djBijcil1WzK-Jz-j-100" value="int findIndexOfDelimiter(const std::string&amp;amp; str, std::string c);" style="text;strokeColor=none;fillColor=none;align=left;verticalAlign=top;spacingLeft=4;spacingRight=4;overflow=hidden;rotatable=0;points=[[0,0.5],[1,0.5]];portConstraint=eastwest;whiteSpace=wrap;html=1;" vertex="1" parent="5i-djBijcil1WzK-Jz-j-91">
          <mxGeometry y="78" width="390" height="26" as="geometry" />
        </mxCell>
        <mxCell id="5i-djBijcil1WzK-Jz-j-98" value="int convertToInt(const std::string&amp;amp; str);" style="text;strokeColor=none;fillColor=none;align=left;verticalAlign=top;spacingLeft=4;spacingRight=4;overflow=hidden;rotatable=0;points=[[0,0.5],[1,0.5]];portConstraint=eastwest;whiteSpace=wrap;html=1;" vertex="1" parent="5i-djBijcil1WzK-Jz-j-91">
          <mxGeometry y="104" width="390" height="26" as="geometry" />
        </mxCell>
        <mxCell id="5i-djBijcil1WzK-Jz-j-93" value="" style="line;strokeWidth=1;fillColor=none;align=left;verticalAlign=middle;spacingTop=-1;spacingLeft=3;spacingRight=3;rotatable=0;labelPosition=right;points=[];portConstraint=eastwest;strokeColor=inherit;" vertex="1" parent="5i-djBijcil1WzK-Jz-j-91">
          <mxGeometry y="130" width="390" height="8" as="geometry" />
        </mxCell>
        <mxCell id="5i-djBijcil1WzK-Jz-j-94" value="public" style="swimlane;fontStyle=1;align=center;verticalAlign=top;childLayout=stackLayout;horizontal=1;startSize=26;horizontalStack=0;resizeParent=1;resizeParentMax=0;resizeLast=0;collapsible=1;marginBottom=0;whiteSpace=wrap;html=1;fillColor=#f8cecc;strokeColor=#b85450;" vertex="1" parent="5i-djBijcil1WzK-Jz-j-90">
          <mxGeometry y="164" width="390" height="112" as="geometry" />
        </mxCell>
        <mxCell id="5i-djBijcil1WzK-Jz-j-101" value="StateJoinLobby(std::string);" style="text;strokeColor=none;fillColor=none;align=left;verticalAlign=top;spacingLeft=4;spacingRight=4;overflow=hidden;rotatable=0;points=[[0,0.5],[1,0.5]];portConstraint=eastwest;whiteSpace=wrap;html=1;" vertex="1" parent="5i-djBijcil1WzK-Jz-j-94">
          <mxGeometry y="26" width="390" height="26" as="geometry" />
        </mxCell>
        <mxCell id="5i-djBijcil1WzK-Jz-j-95" value="StateJoinLobby(FluffyMultiplayer::AnAddress);" style="text;strokeColor=none;fillColor=none;align=left;verticalAlign=top;spacingLeft=4;spacingRight=4;overflow=hidden;rotatable=0;points=[[0,0.5],[1,0.5]];portConstraint=eastwest;whiteSpace=wrap;html=1;" vertex="1" parent="5i-djBijcil1WzK-Jz-j-94">
          <mxGeometry y="52" width="390" height="26" as="geometry" />
        </mxCell>
        <mxCell id="5i-djBijcil1WzK-Jz-j-96" value="~StateJoinLobby()" style="text;strokeColor=none;fillColor=none;align=left;verticalAlign=top;spacingLeft=4;spacingRight=4;overflow=hidden;rotatable=0;points=[[0,0.5],[1,0.5]];portConstraint=eastwest;whiteSpace=wrap;html=1;" vertex="1" parent="5i-djBijcil1WzK-Jz-j-94">
          <mxGeometry y="78" width="390" height="26" as="geometry" />
        </mxCell>
        <mxCell id="5i-djBijcil1WzK-Jz-j-97" value="" style="line;strokeWidth=1;fillColor=none;align=left;verticalAlign=middle;spacingTop=-1;spacingLeft=3;spacingRight=3;rotatable=0;labelPosition=right;points=[];portConstraint=eastwest;strokeColor=inherit;" vertex="1" parent="5i-djBijcil1WzK-Jz-j-94">
          <mxGeometry y="104" width="390" height="8" as="geometry" />
        </mxCell>
      </root>
    </mxGraphModel>
  </diagram>
</mxfile>
